<svg width="388" height="114" viewBox="0 0 388 114" xmlns="http://www.w3.org/2000/svg" xmlns:xlink="http://www.w3.org/1999/xlink"><title>CustomType</title><defs><path id="a" d="M42.65.402H.032v44.454H42.65V.402z"/></defs><g fill="none" fill-rule="evenodd"><path d="M311.013 42.778a12.26 12.26 0 0 1-.492-.098c.962-.795 2.328-1.989 2.85-2.443.457.236.794.612 1.353 1.048.615.479 1.205.988 1.799 1.493-.087.02-.167.038-.263.057-1.756.337-3.503.26-5.247-.057m-1.537-.752c-.11-.25-.158-.591-.196-1.1-.06-.784-.006-1.577-.02-2.366a140.032 140.032 0 0 0-.079-3.093c-.11-2.847-.281-5.693-.335-8.542-.077-4.063-.062-8.127-.103-12.19-.033-3.212-.132-6.423-.123-9.634.002-.748.039-1.144.235-1.37.975.84 2.503 1.703 3.526 2.44.604.437.737.946.687 1.641a61.34 61.34 0 0 0-.155 3.9c-.046 5-.088 10-.097 15-.007 3.85.04 7.7.051 11.55 0 .259-.014.61-.172.761-1.057 1.017-2.152 1.995-3.219 3.003m8.237-39.2c4.019-.085 7.988.251 11.724 1.99 1.53.712 3.239 1.034 4.541 2.226 2.01 1.839 3.638 4.085 4.294 6.62.656 2.527-.051 5.2-1.584 7.453-1.462 2.15-2.888 4.356-5.448 5.436-.738-.243-1.489-.457-2.23-.693-.257-.083-.506-.192-.757-.288.74-.575 1.471-.99 2-1.584 1.463-1.647 2.992-3.283 3.285-5.625.068-.541.123-1.085.21-1.623.678-4.186-1.244-6.859-4.468-8.504-2.67-1.363-5.503-2.501-8.623-2.634-2.176-.094-5.05-.316-7.224-.354-1.202-.57-1.64-.89-2.403-1.584a2.251 2.251 0 0 0-.466-.311c2.384-.183 4.763-.476 7.149-.526m17.831 32.002c1.286 1.98 2.457 4.037 3.646 6.078.135.233.194.52.277.896-.742-.38-1.29-.53-2.25-1.095-.59-.346-1.292-.58-1.738-1.059-.514-.55-.76-1.344-1.196-1.98-1.353-1.972-2.801-3.882-4.097-5.89-.988-1.532-2.769-4.903-2.974-5.204 1.049.345 2.353.828 3.537 1.214.043.098.094.197.161.296 1.545 2.248 3.148 4.457 4.634 6.744m-2.722 8.007a2.285 2.285 0 0 1-.78-.069c.68-.47 1.354-.948 2.056-1.381.32-.196.852-.322 1.17-.194.896.36 1.754.82 2.594 1.302-1.761.111-3.402.213-5.04.342m-2.117-1.133c-.78-1.23-1.569-2.456-2.277-3.727-1.385-2.482-2.68-5.015-4.105-7.474a1.673 1.673 0 0 0-.395-.424c.482-1.103 1.675-3.175 1.92-3.65.389.598.683 1.005.93 1.439.828 1.463 1.567 2.983 2.474 4.394 1.339 2.085 2.783 4.102 4.2 6.136.706 1.015.6 1.476-.43 2.177-.697.474-1.37.986-2.025 1.517a3.13 3.13 0 0 1-.292-.388m-7.837-12.108c-1.463-.105-2.943-.056-4.546-.046-1.283-1.262-3.32-3.154-3.685-3.584 3.368.355 6.638.433 9.822.769-.062.242-1.105 1.784-1.591 2.861m-6.847-20.49c.57.515 1.127.988 1.715 1.466-.001 2.636-.012 5.18.006 7.719.008 1.21.036 2.424.133 3.63.011.137.027.263.05.38-1.161.761-2.148 1.234-3.86 2.189-.453-5.724-.327-11.147.074-16.863.773.602 1.358 1.007 1.882 1.48m3.343 14.154c2.643-.535 5.35-.843 7.438-2.95 2.22-2.238 2.543-5.409.479-7.79-1.638-1.888-3.785-2.77-6.267-2.718-.62.013-1.246.108-1.92.216-1.019-.92-2.552-2.018-3.498-2.84-.218-.188-1.149-.704-1.087-.79.684 0 1.929-.003 2.61.041 1.054.07 2.104.276 3.157.28 2.341.007 4.417.937 6.539 1.732 1.544.58 2.97 1.323 4.129 2.55 1.342 1.425 1.788 3.111 1.665 5.005-.015.243-.063.484-.066.726-.033 2.977-1.57 5.194-3.79 6.902-1.684 1.296-3.627 2.153-5.899 1.873-2.005-.247-7.036-.517-7.238-.568.369-.245 2.032-1.108 3.043-1.666.194.05.425.054.705-.003m-.64-11.76c3.407-1.212 6.716-.131 8.281 2.566.806 1.387.528 3.755-.535 4.932-1.922 2.126-4.453 2.732-7.444 3.08-.596-3.696-.241-7.176-.302-10.579m-.898 24.835c-.257 1.561-.405 3.095-.156 4.69.077.487.082.825-.005 1.073l-.115-.086c-1.09-.813-2.405-1.948-3.452-2.817-.1-.083-.09-7.454-.082-9.663a89.839 89.839 0 0 0-.032-2.462c1.008 1.077 2.429 2.36 3.434 3.438.14.15.266.33.402.486l.001 3.532c.002.604.101 1.222.005 1.809m-.253 7.562c.84-.122 1.19-.484 1.177-1.28-.006-.365-.053-.728-.054-1.092-.004-3.267-.007-6.534.007-9.802.001-.343.117-.687.216-1.234 1.339.089 2.601.108 3.838.293.388.058.824.497 1.043.875 2 3.462 4.056 6.899 5.878 10.455.7 1.368 1.518 1.875 2.957 1.807 2.6-.122 5.204-.134 7.803-.274.387-.02 1.009-.442 1.064-.758.08-.455-.172-1.04-.443-1.467-.41-.642-1.03-1.151-1.437-1.796-1.23-1.948-2.377-3.947-3.597-5.901-1.245-1.992-2.537-3.954-3.78-5.886.252-.3.352-.459.487-.573.324-.273.675-.513.997-.787 2.704-2.298 4.763-5.044 5.517-8.57.472-2.208.716-4.47-.6-6.54-.781-1.228-1.57-2.456-2.418-3.64-.38-.53-.9-.967-1.382-1.421-1.375-1.295-3.237-1.604-4.855-2.403-3.194-1.578-6.604-2.093-10.066-2.082-3.69.011-7.38.363-11.068.584-.284.016-.558.181-.904.3-.505 3.408-.404 6.803-.324 10.194.14 5.945.378 11.889.468 17.834.055 3.632.54 7.253.169 10.902-.146 1.429.46 1.896 1.887 2.165 2.47.466 4.934.457 7.42.097M166.97 109.09c-.589-.346-1.292-.582-1.738-1.059-.514-.55-.76-1.344-1.196-1.98-1.353-1.973-2.801-3.882-4.096-5.89-.99-1.532-2.769-4.903-2.975-5.204 1.05.345 2.354.828 3.537 1.214.043.098.094.197.161.295 1.545 2.249 3.148 4.458 4.634 6.744 1.287 1.98 2.457 4.038 3.646 6.079.136.233.194.519.278.896-.742-.38-1.29-.53-2.252-1.095m-4.393 2.128a2.304 2.304 0 0 1-.78-.069c.679-.47 1.353-.948 2.056-1.381.32-.197.85-.323 1.17-.194.895.36 1.754.82 2.593 1.302-1.761.11-3.402.213-5.04.342m-2.116-1.133c-.78-1.23-1.569-2.457-2.278-3.727-1.385-2.483-2.68-5.015-4.105-7.473a1.67 1.67 0 0 0-.394-.426c.48-1.102 1.675-3.174 1.919-3.65.39.6.684 1.006.93 1.44.828 1.463 1.567 2.982 2.474 4.394 1.338 2.085 2.783 4.102 4.2 6.136.707 1.014.6 1.476-.429 2.177a30.44 30.44 0 0 0-2.026 1.517 3.203 3.203 0 0 1-.291-.388m-7.838-12.108c-1.463-.105-2.943-.057-4.545-.046-1.284-1.262-3.32-3.154-3.686-3.584 3.369.354 6.64.433 9.823.768-.063.243-1.106 1.784-1.592 2.862m-5.041 6.738c-.258 1.562-.405 3.096-.156 4.69.076.488.081.826-.005 1.074l-.115-.086c-1.09-.813-2.405-1.948-3.452-2.817-.101-.084-.09-7.454-.083-9.663a90.23 90.23 0 0 0-.031-2.462c1.007 1.077 2.428 2.36 3.434 3.438.14.15.265.33.402.485-.001 1.167-.001 2.346.001 3.533 0 .604.101 1.222.005 1.808m-1.567 6.504c-1.755.337-3.502.26-5.247-.057a12.534 12.534 0 0 1-.492-.098c.962-.795 2.328-1.989 2.85-2.443.457.236.794.612 1.354 1.048.614.479 1.204.988 1.798 1.493-.086.02-.166.038-.263.057m-6.784-.81c-.109-.248-.158-.59-.196-1.098-.06-.785-.006-1.578-.02-2.367a140.037 140.037 0 0 0-.078-3.093c-.11-2.848-.282-5.694-.336-8.542-.077-4.062-.062-8.127-.103-12.19-.033-3.212-.131-6.423-.123-9.634.002-.748.039-1.143.236-1.371.975.84 2.503 1.703 3.525 2.441.605.437.737.946.687 1.641a61.885 61.885 0 0 0-.155 3.9c-.046 5-.088 10-.097 15-.007 3.85.04 7.7.052 11.55 0 .259-.015.61-.173.76-1.057 1.017-2.152 1.996-3.219 3.004m9.249-30.53c3.406-1.21 6.715-.13 8.28 2.568.806 1.387.529 3.754-.534 4.93-1.922 2.128-4.454 2.734-7.445 3.082-.596-3.696-.24-7.176-.301-10.58m-.066 11.766c.195.05.425.053.706-.004 2.642-.535 5.35-.843 7.438-2.95 2.219-2.238 2.543-5.409.478-7.79-1.638-1.888-3.784-2.77-6.268-2.718-.62.013-1.244.108-1.918.216-1.02-.92-2.552-2.018-3.498-2.84-.219-.188-1.15-.704-1.087-.79.683 0 1.928-.003 2.608.042 1.055.069 2.106.275 3.159.278 2.34.008 4.417.938 6.538 1.733 1.544.58 2.97 1.323 4.129 2.55 1.343 1.424 1.79 3.111 1.666 5.005-.016.243-.064.484-.067.725-.033 2.977-1.568 5.195-3.789 6.903-1.685 1.296-3.627 2.153-5.9 1.873-2.005-.247-7.036-.517-7.237-.57.368-.244 2.031-1.106 3.042-1.663m-.917-4.974a49.9 49.9 0 0 0 .133 3.63c.01.137.028.263.05.38-1.16.761-2.148 1.234-3.86 2.189-.453-5.724-.326-11.147.074-16.862.774.601 1.358 1.007 1.882 1.478.57.514 1.128.988 1.715 1.466-.001 2.636-.012 5.18.006 7.72m-.028-15.464c4.019-.084 7.988.252 11.723 1.991 1.53.712 3.238 1.033 4.541 2.226 2.01 1.839 3.637 4.084 4.294 6.62.656 2.527-.05 5.2-1.584 7.453-1.462 2.15-2.887 4.355-5.448 5.436-.738-.243-1.488-.457-2.229-.694-.258-.082-.507-.19-.758-.287.74-.576 1.471-.99 2-1.584 1.464-1.647 2.993-3.283 3.286-5.625.067-.542.122-1.085.21-1.623.677-4.186-1.244-6.859-4.468-8.504-2.67-1.363-5.504-2.501-8.624-2.635-2.176-.093-5.05-.315-7.223-.353-1.202-.57-1.641-.89-2.405-1.584-.14-.128-.3-.224-.464-.311 2.383-.183 4.763-.476 7.149-.526m21.908 36.796c-1.229-1.948-2.377-3.947-3.597-5.901-1.244-1.992-2.536-3.954-3.78-5.886.252-.3.352-.459.488-.573.323-.273.674-.513.996-.787 2.704-2.299 4.763-5.044 5.517-8.57.473-2.208.716-4.47-.6-6.54-.781-1.228-1.57-2.456-2.418-3.64-.38-.53-.9-.967-1.38-1.421-1.377-1.295-3.239-1.604-4.857-2.403-3.193-1.578-6.603-2.093-10.066-2.082-3.69.012-7.38.362-11.068.584-.283.017-.558.18-.904.3-.505 3.407-.404 6.804-.324 10.194.14 5.945.379 11.889.468 17.834.055 3.632.541 7.253.169 10.902-.146 1.429.46 1.896 1.887 2.165 2.47.465 4.934.457 7.42.097.84-.122 1.191-.484 1.178-1.28-.007-.365-.054-.729-.055-1.092-.004-3.267-.007-6.534.008-9.802.001-.343.116-.687.216-1.234 1.339.089 2.6.108 3.838.293.388.058.824.497 1.042.875 2 3.462 4.056 6.899 5.879 10.455.7 1.368 1.517 1.875 2.956 1.807 2.6-.122 5.204-.134 7.803-.274.388-.02 1.009-.442 1.064-.758.08-.455-.171-1.04-.443-1.467-.41-.643-1.03-1.151-1.437-1.796M343.111 109.09c-.588-.346-1.292-.582-1.737-1.059-.514-.55-.76-1.344-1.196-1.98-1.353-1.973-2.801-3.882-4.097-5.89-.988-1.532-2.768-4.903-2.974-5.204 1.05.345 2.354.828 3.537 1.214.043.098.093.197.161.295 1.544 2.249 3.148 4.458 4.634 6.744 1.287 1.98 2.457 4.038 3.646 6.079.136.233.194.519.278.896-.743-.38-1.29-.53-2.252-1.095m-4.393 2.128a2.304 2.304 0 0 1-.78-.069c.679-.47 1.353-.948 2.056-1.381.319-.197.85-.323 1.17-.194.895.36 1.754.82 2.593 1.302-1.761.11-3.402.213-5.04.342m-2.116-1.133c-.78-1.23-1.569-2.457-2.278-3.727-1.385-2.483-2.68-5.015-4.105-7.473a1.67 1.67 0 0 0-.394-.426c.48-1.102 1.675-3.174 1.919-3.65.39.6.684 1.006.93 1.44.828 1.463 1.567 2.982 2.474 4.394 1.338 2.085 2.783 4.102 4.2 6.136.707 1.014.6 1.476-.429 2.177a30.44 30.44 0 0 0-2.026 1.517 3.203 3.203 0 0 1-.291-.388m-7.838-12.108c-1.463-.105-2.943-.057-4.546-.046-1.283-1.262-3.318-3.154-3.685-3.584 3.369.354 6.64.433 9.823.768-.063.243-1.106 1.784-1.592 2.862m-5.041 6.738c-.258 1.562-.405 3.096-.156 4.69.076.488.081.826-.005 1.074l-.115-.086c-1.09-.813-2.405-1.948-3.453-2.817-.1-.084-.09-7.454-.082-9.663a90.23 90.23 0 0 0-.031-2.462c1.006 1.077 2.428 2.36 3.434 3.438.14.15.265.33.402.485-.001 1.167-.001 2.346.001 3.533 0 .604.101 1.222.005 1.808m-1.568 6.504c-1.754.337-3.501.26-5.246-.057a12.534 12.534 0 0 1-.492-.098c.962-.795 2.328-1.989 2.85-2.443.456.236.794.612 1.354 1.048.614.479 1.204.988 1.798 1.493-.086.02-.166.038-.264.057m-6.783-.81c-.109-.248-.158-.59-.196-1.098-.06-.785-.006-1.578-.02-2.367a140.03 140.03 0 0 0-.078-3.093c-.11-2.848-.282-5.694-.336-8.542-.077-4.062-.062-8.127-.103-12.19-.033-3.212-.131-6.423-.123-9.634.002-.748.039-1.143.236-1.371.974.84 2.503 1.703 3.525 2.441.605.437.737.946.687 1.641a61.884 61.884 0 0 0-.155 3.9c-.046 5-.088 10-.097 15-.007 3.85.04 7.7.052 11.55 0 .259-.015.61-.173.76-1.057 1.017-2.152 1.996-3.22 3.004m9.25-30.53c3.406-1.21 6.715-.13 8.28 2.568.806 1.387.528 3.754-.535 4.93-1.921 2.128-4.453 2.734-7.444 3.082-.596-3.696-.24-7.176-.301-10.58m-.066 11.766c.195.05.425.053.706-.004 2.642-.535 5.35-.843 7.438-2.95 2.219-2.238 2.543-5.409.478-7.79-1.638-1.888-3.784-2.77-6.268-2.718-.62.013-1.244.108-1.918.216-1.02-.92-2.552-2.018-3.498-2.84-.22-.188-1.15-.704-1.087-.79.683 0 1.928-.003 2.608.042 1.055.069 2.106.275 3.159.278 2.34.008 4.417.938 6.538 1.733 1.544.58 2.97 1.323 4.128 2.55 1.344 1.424 1.79 3.111 1.667 5.005-.016.243-.064.484-.067.725-.033 2.977-1.568 5.195-3.789 6.903-1.685 1.296-3.628 2.153-5.9 1.873-2.005-.247-7.036-.517-7.237-.57.368-.244 2.031-1.106 3.042-1.663m-.917-4.974a49.9 49.9 0 0 0 .133 3.63c.01.137.028.263.05.38-1.16.761-2.148 1.234-3.86 2.189-.453-5.724-.326-11.147.074-16.862.773.601 1.358 1.007 1.882 1.478.57.514 1.128.988 1.714 1.466 0 2.636-.01 5.18.007 7.72m-.029-15.464c4.02-.084 7.989.252 11.724 1.991 1.53.712 3.238 1.033 4.541 2.226 2.01 1.839 3.637 4.084 4.294 6.62.655 2.527-.05 5.2-1.584 7.453-1.462 2.15-2.887 4.355-5.448 5.436-.738-.243-1.488-.457-2.229-.694-.258-.082-.507-.19-.758-.287.74-.576 1.471-.99 2-1.584 1.463-1.647 2.993-3.283 3.286-5.625.067-.542.122-1.085.21-1.623.677-4.186-1.244-6.859-4.468-8.504-2.67-1.363-5.505-2.501-8.624-2.635-2.176-.093-5.05-.315-7.223-.353-1.202-.57-1.642-.89-2.405-1.584-.14-.128-.3-.224-.464-.311 2.383-.183 4.763-.476 7.148-.526m21.908 36.796c-1.228-1.948-2.376-3.947-3.596-5.901-1.244-1.992-2.536-3.954-3.78-5.886.252-.3.351-.459.488-.573.323-.273.674-.513.996-.787 2.704-2.299 4.763-5.044 5.517-8.57.473-2.208.716-4.47-.6-6.54-.782-1.228-1.57-2.456-2.418-3.64-.381-.53-.9-.967-1.381-1.421-1.376-1.295-3.238-1.604-4.856-2.403-3.193-1.578-6.603-2.093-10.066-2.082-3.69.012-7.38.362-11.068.584-.283.017-.558.18-.904.3-.505 3.407-.404 6.804-.324 10.194.14 5.945.378 11.889.468 17.834.055 3.632.541 7.253.169 10.902-.146 1.429.46 1.896 1.887 2.165 2.47.465 4.934.457 7.42.097.84-.122 1.191-.484 1.178-1.28-.007-.365-.054-.729-.055-1.092-.004-3.267-.007-6.534.008-9.802.001-.343.116-.687.216-1.234 1.339.089 2.6.108 3.837.293.388.058.825.497 1.043.875 2 3.462 4.056 6.899 5.878 10.455.7 1.368 1.518 1.875 2.957 1.807 2.6-.122 5.204-.134 7.803-.274.388-.02 1.009-.442 1.064-.758.08-.455-.171-1.04-.443-1.467-.41-.643-1.03-1.151-1.438-1.796M272.846 3.711c.732.65 1.66 1.5 2.158 1.89.967.758 1.125 1.937 1.125 2.544-.064 3.117.176 6.24.251 9.36.054 2.268.03 4.538.07 6.807.07 4 .174 7.999.234 11.999.01.656.099 1.491-.245 1.94-1.006 1.31-1.587 2.161-2.74 3.351-.34.352-.722.663-1.099.98-.274-3.896-.082-33.257.246-38.87m1.397-.989c6.189.017 12.379.023 18.568.089 1.127.012 2.255.243 3.463.402-1.216.872-2.24 1.685-3.524 2.586-.316.221-.693.49-1.047.499-1.778.044-3.567.116-5.336-.024-2.928-.231-5.845-.29-8.768.01-.245.025-.554-.036-.751-.175-1.266-.887-2.305-2.275-3.508-3.304.316-.043.615-.084.903-.083m22.41 6.814a1.42 1.42 0 0 1-.023.264c-.67-.931-1.296-1.903-2.425-2.429-.735-.342-.514-.85.064-1.228.846-.553 1.494-.995 2.248-1.511.057 1.69.114 3.298.136 4.904m-1.49 1.24c-1.575.086-3.153.141-4.73.143-2.83.003-5.66-.03-8.49-.046l-.016-.014c-1.233-1.093-2.482-2.166-3.725-3.246l.152-.288c.202-.03.402-.085.603-.084 3.626.033 7.253.017 10.876.142 1.15.04 2.363.284 3.409.749 1.14.507 2.185 1.27 2.779 2.461-.252.115-.553.167-.858.184m-7.995 8.938c2.056-.123 4.118-.236 6.176-.22.332.002.592.017.8.057a34.194 34.194 0 0 0-1.834 2.299c-.51.7-1.084 1.25-1.994 1.188-2.291-.156-3.819-.105-6.11-.266-.628-.044-1.262.007-1.893.015-1.202.013-2.404.035-3.607.028-.146-.001-.29-.161-.574-.33 1.079-1.055 2.1-2.029 3.08-3.04 2.043.55 3.997.386 5.956.269m7.7.472c.07.223.113.508.148.892.15 1.614.18 3.24.273 5.06h-.002c-.137-.12-.286-.235-.414-.362-.702-.691-1.428-1.361-2.078-2.1-.137-.156-.101-.644.043-.843.651-.9 1.36-1.76 2.03-2.647m-1.599 6.232c-2.908-.069-5.814-.214-8.721-.287-1.202-.03-2.422-.113-3.637.205-.671-.532-1.391-1.004-2.068-1.532-.226-.176-.356-.476-.53-.72l.125-.252c2.733.057 5.468-.184 8.199-.07 1.328.055 1.901.476 3.208.389 1.256-.085 2.186.28 3 1.109.414.42.685.766.988 1.123-.19.023-.378.04-.564.035m2.579 9.513c-.914.833-1.837 1.666-2.646 2.595-.888 1.019-1.926 1.006-3.127.873a70.486 70.486 0 0 0-5.128-.404c-1.206-.056-2.422.063-3.623-.029-1.027-.077-2.039-.344-3.247-.56.593-.618 1.072-1.18 1.617-1.668.565-.505.905-.787 1.374-1.207l14.78.4m.892.024h.012c.059 2.15.144 4.128.153 6.104.002.496-.21.736-.514.858-.013-.019-.02-.044-.037-.06a37.41 37.41 0 0 0-2.543-2.315c-.539-.446-.532-.74-.017-1.214a46.594 46.594 0 0 0 2.789-2.812c.117-.128.14-.341.157-.56m-19.014-14.635l-.256-.148-.306-12.884c.294.183.46.25.576.365.876.862 1.744 1.734 2.624 2.593v7.487c-.549.514-1.075 1.056-1.61 1.587-.339.338-.685.667-1.028 1m2.607 13.268c-.122.125-.237.272-.37.383-.8.666-1.177 1.054-2.09 1.802-.372-3.813-.568-7.433-.126-11.24.905.609 1.73 1.097 2.468 1.668-.003 2.457-.314 4.873.118 7.387m1.683 8.684c-2.487.025-4.975-.035-7.461-.088a8.468 8.468 0 0 1-.974-.088c.855-.691 1.704-1.389 2.426-2.2.797-.893.832-1.452 2.208-1.23.97.154 1.954.268 2.935.306 2.665.102 4.575.117 7.24.235 2.467.11 4.854.455 6.307 2.852-4.227.074-8.454.17-12.681.213m-10.677-1.34c-.002.751.135 1.504.21 2.302 8.817.21 17.407.3 25.97-.265.194-.367.294-.47.298-.578.109-2.546.221-5.09.299-7.638.026-.86-.534-1.168-1.312-1.13-.845.041-1.689.179-2.533.173-2.243-.016-4.484-.08-6.726-.137-1.636-.042-3.275-.065-4.907-.177-.658-.044-1.385-.233-1.4-1.129-.035-1.984-.177-3.983.516-6.02 4.8-.497 9.568.592 14.303.069.115-.238.262-.4.26-.56-.046-2.542-.087-5.085-.184-7.626-.033-.875-.647-1.001-1.425-.958-2.663.145-5.329.291-7.995.32-1.668.017-3.372.53-5.054-.234v-5.916c.56-.1.907-.212 1.257-.217 2.486-.037 4.973-.017 7.458-.087 1.998-.057 3.995-.202 5.99-.336.807-.054 1.384-.39 1.38-1.342-.013-2.71-.005-5.418-.005-8.208-.17-.065-.387-.215-.61-.223-3.872-.152-7.744-.34-11.618-.41-3.699-.067-7.4-.015-11.1.002-.666.003-1.332.073-1.996.136-.732.07-1.068.528-1.064 1.23.005.665.09 1.332.09 1.998.004 7.341.012 14.683-.008 22.023-.013 4.98-.077 9.958-.094 14.938M38.341 15c-.105-3.27-.276-6.539-.36-9.81-.018-.717.024-1.145.226-1.43.003.002.003.006.006.007.699.618 1.446 1.213 2.26 1.665 1.074.597 1.951 1.207 1.576 2.644-.066.25.024.542.048.815.169 1.874.394 3.746.498 5.624.186 3.374.34 6.752.43 10.13.06 2.176-.002 4.357-.039 6.534-.035 2.089-.14 4.177-.147 6.266-.002.79-.322 1.304-.899 1.775a137.133 137.133 0 0 0-3.533 2.974c-.424-1.945-.38-3.849-.257-5.759.05-.784.142-1.587.038-2.358-.667-4.975-.093-9.93.158-14.89.07-1.393.04-2.793-.005-4.188m1.356-11.828a24.27 24.27 0 0 1 3.785-.292c2.602.001 5.222-.075 7.802.194 3.658.38 7.296.993 10.926 1.6 3.409.57 5.65 2.822 7.57 5.502.483.676 1.173 1.21 1.618 1.906a13.999 13.999 0 0 1 1.37 2.73c.412 1.135.657 2.33.966 3.503.077.292.125.593.175.893.231 1.372.112 2.76.372 4.158a6.226 6.226 0 0 1-.732-.699c-1.243-1.4-3.313-2.15-3.515-4.39-.049-.542-.036-1.132-.253-1.608-.902-1.973-1.814-3.948-2.856-5.849-.61-1.111-1.686-1.849-2.914-2.182-1.604-.436-3.242-.746-4.868-1.098-1.239-.27-2.482-.521-3.722-.78-1.59-.33-3.168-.76-4.775-.958-1.097-.134-2.234.072-3.353.098-1.23.03-2.46.031-3.69.034-.228.001-.51.033-.674-.082-1.222-.857-2.419-1.75-3.639-2.606.127-.026.255-.05.407-.074M45.7 9.926c.523.46.585.62.942.925a1.996 1.996 0 0 0-.1.705c.056 3.336.004 6.674.076 10.01.036 1.695.247 3.388.38 5.081l-.148.009c0 .79.026 1.58-.008 2.368-.03.728-.124 1.453-.197 2.179-.122 1.208-.286 2.413-.365 3.624-.016.229-.008.422.01.599-.457.37-.901.756-1.357 1.127-.252.204-.533.37-1.037.715-.067-1.128-.183-2.043-.167-2.956.072-3.874.34-7.75.236-11.618-.12-4.446-.56-8.882-.853-13.323-.029-.436-.004-.875-.004-1.312l.245-.15c.783.672 1.573 1.336 2.347 2.017m22.982 9.98c-1.07.827-1.835 1.248-2.746 1.893-.048-2.116-.437-4.205-1.724-5.978-2.01-2.769-4.82-4.407-8.136-5.032-2.255-.425-4.569-.543-6.859-.77-.416-.042-.846.062-1.27.08a2.779 2.779 0 0 0-.25.022c-1.013-.919-1.446-1.217-2.511-2.094-.3-.246-.577-.518-.865-.778.015-.098.029-.197.042-.295.747-.014 1.493-.036 2.24-.037.6 0 1.203.072 1.799.028 2.295-.168 4.507.143 6.7.857 1.225.4 2.536.534 3.806.798 1.536.32 3.09.58 4.6 1 1.209.336 2.106 1.191 2.75 2.265.638 1.064 1.37 2.103 1.801 3.25.506 1.347.75 2.794 1.055 4.209.034.158-.242.434-.432.581M48.1 36.465c1.024-.115 2.061-.117 3.084-.241 2.351-.284 4.715-.553 6.823-1.766 1.367-.787 2.708-1.617 4.07-2.41 1.114-.648 1.811-1.554 2.046-2.852.14-.769.298-1.598.7-2.243.706-1.13.99-2.357 1.08-3.602.673-.5 1.173-.867 1.914-1.472.362-.296.753-.554 1.13-.83l.265.171c.245 3.06.226 6.077-1.445 8.849-.777 1.29-1.414 2.686-2.338 3.857-.942 1.194-2.145 2.185-3.266 3.23-.254.238-.625.377-.966.491-3.16 1.058-6.43 1.418-9.742 1.435-.861.005-1.723-.202-2.588-.23-1.017-.03-2.036.022-3.054.05-.439.013-.877.056-1.316.086l-.145-.279c.715-.614 1.433-1.224 2.142-1.844.17-.149.345-.294.516-.443.277.08.631.096 1.09.044m-.46-1.53c-.012-1.015-.057-1.767.018-2.49.412-3.943.324-7.878.047-11.827-.178-2.54-.167-5.098-.16-7.648.005-1.553.497-1.908 2.046-1.744 1.925.204 3.848.425 5.775.603 2.944.272 5.338 1.831 7.308 3.765 1.661 1.63 2.118 4.072 2.12 6.423 0 1.628-.134 3.263-1.09 4.73-.417.639-.63 1.459-.759 2.226-.16.944-.679 1.513-1.451 1.966-1.36.795-2.711 1.603-4.054 2.428-1.322.812-2.774 1.212-4.293 1.393-1.712.204-3.43.377-5.431.594.004-.14 0-.285.016-.417-.03.002-.061-.001-.091-.002m26.725-9.883c-.136.753-.436 1.549-.54 2.31-.805 5.85-4.21 9.953-8.91 13.12-.973.657-2.21 1.026-3.38 1.267a79.74 79.74 0 0 1-6.81 1.072c-1.732.203-3.486.25-5.232.297-3.36.088-6.734.421-10.17-.28.561-.48 1.112-.975 1.631-1.5.94-.948 1.992-1.415 3.35-1.167.4.073.838-.104 1.26-.124 1.075-.051 2.152-.108 3.228-.103.409.001.824.263 1.224.236 2.709-.187 5.443-.248 8.111-.697 1.72-.29 3.566-.858 4.956-1.858 1.965-1.413 3.836-3.086 4.803-5.492.413-1.024 1.187-1.908 1.567-2.94.758-2.061 1.107-4.218.983-6.432-.018-.321-.003-.645-.003-.967l.252-.118c.36.307.728.606 1.08.922.968.873 1.508 1.64 2.54 2.43.02.015.04.016.06.024m-37.11-7.1c.004 2.968-.267 5.936-.365 8.906-.061 1.878-.05 3.76-.029 5.639.018 1.51.129 3.02.146 4.53.027 2.225.007 4.45.007 6.854 1.008.128 2.074.365 3.143.38 2.965.043 5.934-.094 8.897.004 2.874.096 5.687-.226 8.494-.754.833-.157 1.663-.392 2.502-.435 2.378-.124 4.49-.914 6.403-2.307 3.56-2.593 6.455-5.726 7.789-10.017.59-1.903.974-3.882 1.289-5.854.158-.992.055-2.06-.117-3.062-.37-2.144-.767-4.293-1.336-6.39a16.993 16.993 0 0 0-1.661-3.998c-.56-.972-1.488-1.727-2.234-2.595-1.572-1.83-3.098-3.777-5.51-4.494-2.425-.72-4.91-1.246-7.387-1.767-1.109-.232-2.267-.226-3.399-.36-.96-.114-1.912-.36-2.873-.396-2.545-.097-5.093-.178-7.639-.135-1.747.03-3.49.269-5.234.434-.766.073-1.19.458-1.195 1.3-.012 2.119-.152 4.239-.096 6.354.072 2.723.402 5.442.405 8.164" fill="#FFF"/><g transform="translate(179.194 .358)"><mask id="b" fill="#fff"><use xlink:href="#a"/></mask><path d="M41.35 23.51a44.547 44.547 0 0 1-.044 1.623c-1.475-.856-2.954-1.708-4.408-2.596-.25-.151-.469-.504-.523-.797-.324-1.75-.7-3.502-.852-5.27-.112-1.323-.52-2.46-1.177-3.58-1.268-2.16-3.014-3.91-5.02-5.289-1.464-1.007-3.223-1.693-4.948-2.175-1.238-.347-2.64-.2-3.962-.136-2.65.127-5.152.646-7.039 2.805-.648.741-1.566 1.24-2.3 1.916-.86.79-1.841 1.537-2.44 2.507-1.52 2.467-2.328 5.238-2.986 8.051-.146.627-.342 1.428-.798 1.764-1.462 1.081-2.201 1.622-3.525 2.518-.034-.355-.067-.71-.087-1.068-.042-.784-.105-1.59.024-2.356.372-2.21.792-4.415 1.28-6.603.54-2.419 1.954-4.423 3.29-6.444.929-1.406 2.435-2.099 3.814-2.99 1.968-1.27 4.07-2.15 6.262-2.85 1.48-.474 2.988-.603 4.581-.645 2.546-.068 4.913.606 7.341 1 3.662.596 6.248 2.817 8.523 5.69 2.358 2.975 3.751 6.366 4.842 9.878.48 1.548.157 3.357.151 5.047m-6.74-.44c-.85.659-1.402.968-2.157 1.474.003-.151.01-.302.008-.456a2.262 2.262 0 0 1 .11-.715c.78-2.38-.08-4.66-.97-6.67-2.19-4.948-6.51-7.035-12.18-7.74-.584.192-1.625.458-2.606.867-2.86 1.194-4.508 3.647-5.931 6.183-1.155 2.056-2.02 4.344-1.647 6.771.124.81.29 1.623.492 2.427a18.736 18.736 0 0 1-1.403-1.153c-2.136-1.953-2.187-1.985-1.33-4.743.592-1.899 1.213-3.826 2.143-5.567.66-1.238 1.827-2.216 2.827-3.252.585-.606 1.314-1.069 1.926-1.65 1.312-1.245 2.797-2.138 4.634-2.233 1.81-.094 3.661-.321 5.43-.06 1.477.217 3.001.844 4.253 1.67 1.832 1.207 3.388 2.769 4.757 4.558 1.453 1.898 1.539 4.006 1.687 6.183.066.963.334 1.913.388 2.876.024.411-.135 1.003-.43 1.23M11.994 16.44c1.31-2.32 2.877-4.503 5.466-5.67 1.152-.519 2.26-.793 3.504-.359.856.3 1.747.501 2.63.715 3.403.824 5.667 3.13 6.973 6.145.751 1.732 1.524 3.734.856 5.807-.072.225-.078.48-.074.72.085 4.344-1.904 7.5-5.5 9.783-1.122.712-2.092 1.703-3.173 1.6-5.46-.243-9.457-3.392-11.063-7.771-.209-.569-.325-1.174-.56-1.73-1.377-3.256-.69-6.353.94-9.24M10.653 28.04c2.066 4.931 5.76 7.81 11.168 8.324 1.327.127 2.523-.228 3.604-.978.597-.415 1.157-.882 1.746-1.31 2.905-2.111 4.743-4.786 5.184-8.206l.105-.062c.96-.56 1.345-.745 2.46-1.409 0 .824.06 1.559-.01 2.28-.31 3.132-1.664 5.917-3.313 8.484-1.18 1.837-3.082 3.041-5.22 3.76-2.177.73-4.321.767-6.496-.011-.735-.263-1.529-.457-2.304-.49-1.835-.079-3.254-.988-4.658-2.033-1.508-1.124-3.123-2.131-3.943-3.927a15.61 15.61 0 0 1-.85-2.287c-.521-1.878-.985-3.772-1.472-5.66l.353-.118c.75.651 1.496 1.306 2.25 1.951.15.13.621.381.955.517.136.398.28.791.44 1.175m30.596.012c.044 1.673-.56 3.158-1.48 4.414-1.747 2.388-3.535 4.788-5.903 6.62-1.19.92-2.512 1.683-3.827 2.425a30.213 30.213 0 0 1-3.443 1.644c-.658.269-1.39.42-2.1.479-.963.08-1.938.02-2.908.02-3.178.128-6.304-.184-9.271-1.393a12.283 12.283 0 0 1-4.579-3.22c-.241-.269-.493-.55-.792-.744-1.493-.964-2.409-2.392-3.071-3.969-1.122-2.67-1.983-5.415-2.396-8.268.284-.158.235-.2.788-.554.978-.624 1.928-1.293 2.992-2.011.203.577.368.962.475 1.365.53 2.014 1.003 4.044 1.585 6.043.257.884.67 1.736 1.105 2.553 1.234 2.322 3.373 3.7 5.566 4.895 1.187.646 2.625.851 3.967 1.186 2.816.703 5.575 1.45 8.565.495 2.328-.743 4.109-2.097 5.643-3.845.661-.754 1.018-1.777 1.505-2.682 1.504-2.789 2.517-5.706 2.356-8.936-.013-.282.082-.569.14-.945.298.137.487.21.662.307 1.476.823 2.943 1.663 4.436 2.454-.018.556-.03 1.112-.015 1.667M34.406 4.755c-.603-.715-1.479-1.321-2.353-1.666-3.721-1.465-7.697-1.896-11.589-2.66-.34-.067-.73-.001-1.074.09-3.686.98-7.431 1.81-10.57 4.187-.381.29-.869.436-1.274.701-.606.398-1.275.755-1.752 1.28-1.728 1.903-3.092 4.105-3.887 6.511-.792 2.398-1.028 4.974-1.645 7.438-.558 2.228.037 4.357.355 6.497.475 3.2 1.308 6.366 3.026 9.106 1.892 3.019 4.644 5.252 7.858 6.835 3.072 1.512 6.377 1.826 10.35 1.722 2.043.197 4.6-.033 6.87-1.613.294-.205.654-.317.987-.464 2.126-.937 4.074-2.121 5.695-3.83 1.417-1.493 3.013-2.826 4.35-4.383 1.567-1.825 2.564-3.954 2.552-6.458-.006-1.393-.074-2.813.155-4.175.774-4.603-.932-8.658-2.964-12.5-1.284-2.428-3.294-4.487-5.09-6.618" fill="#FFF" mask="url(#b)"/></g><path d="M81.43 92.252a44.547 44.547 0 0 1-.043 1.623c-1.475-.857-2.953-1.708-4.408-2.596-.25-.152-.469-.504-.523-.797-.324-1.75-.7-3.502-.852-5.271-.112-1.322-.52-2.459-1.177-3.58-1.268-2.159-3.014-3.908-5.02-5.288-1.464-1.007-3.223-1.693-4.948-2.176-1.238-.346-2.64-.199-3.962-.135-2.65.127-5.152.645-7.039 2.804-.648.742-1.566 1.242-2.3 1.917-.86.79-1.841 1.537-2.44 2.507-1.52 2.467-2.327 5.238-2.986 8.051-.146.627-.341 1.427-.798 1.764-1.461 1.08-2.201 1.622-3.524 2.518-.035-.355-.068-.71-.088-1.068-.042-.784-.105-1.59.024-2.357.373-2.21.792-4.414 1.28-6.602.54-2.419 1.954-4.424 3.29-6.444.929-1.407 2.435-2.099 3.814-2.99 1.968-1.271 4.07-2.15 6.263-2.851 1.479-.473 2.987-.602 4.58-.645 2.546-.067 4.913.607 7.341 1.001 3.662.596 6.248 2.817 8.523 5.69 2.358 2.975 3.751 6.366 4.842 9.877.48 1.55.158 3.357.151 5.048m-6.739-.44c-.851.658-1.402.968-2.158 1.474.003-.151.01-.302.008-.456a2.262 2.262 0 0 1 .11-.715c.78-2.38-.08-4.66-.97-6.67-2.19-4.948-6.51-7.035-12.18-7.74-.584.192-1.625.458-2.606.867-2.86 1.193-4.508 3.647-5.931 6.183-1.155 2.056-2.02 4.343-1.647 6.77.124.81.29 1.624.492 2.427a18.736 18.736 0 0 1-1.403-1.152c-2.136-1.954-2.187-1.985-1.33-4.743.592-1.9 1.213-3.826 2.143-5.568.66-1.237 1.828-2.215 2.828-3.252.584-.605 1.313-1.068 1.925-1.65 1.312-1.245 2.797-2.137 4.634-2.232 1.811-.094 3.661-.321 5.43-.06 1.477.217 3.001.844 4.253 1.67 1.833 1.207 3.388 2.769 4.757 4.558 1.453 1.898 1.539 4.006 1.688 6.183.065.963.333 1.913.388 2.876.023.411-.136 1.003-.431 1.23M52.075 85.18c1.31-2.32 2.877-4.502 5.466-5.668 1.152-.52 2.261-.794 3.504-.36.856.299 1.747.501 2.63.715 3.403.824 5.667 3.13 6.973 6.145.751 1.732 1.524 3.734.856 5.806-.072.226-.078.48-.073.722.084 4.343-1.905 7.498-5.502 9.782-1.121.712-2.09 1.703-3.172 1.6-5.46-.243-9.457-3.392-11.063-7.772-.209-.568-.325-1.173-.56-1.73-1.377-3.255-.69-6.352.94-9.24m-1.341 11.602c2.066 4.93 5.76 7.81 11.168 8.324 1.327.126 2.523-.228 3.604-.979.597-.415 1.157-.881 1.746-1.31 2.905-2.11 4.743-4.786 5.184-8.205l.105-.062c.96-.56 1.345-.745 2.46-1.41 0 .825.06 1.56-.01 2.28-.31 3.133-1.663 5.918-3.313 8.485-1.18 1.837-3.082 3.041-5.22 3.76-2.177.73-4.321.767-6.496-.011-.735-.263-1.529-.457-2.304-.49-1.835-.079-3.254-.989-4.658-2.034-1.508-1.124-3.123-2.13-3.943-3.926a15.61 15.61 0 0 1-.85-2.287c-.52-1.878-.985-3.772-1.472-5.66l.354-.119c.748.652 1.495 1.307 2.249 1.952.15.13.621.38.956.517.135.397.279.791.44 1.175m30.595.011c.044 1.674-.56 3.159-1.48 4.414-1.747 2.388-3.535 4.788-5.903 6.62-1.19.921-2.512 1.684-3.827 2.426a30.213 30.213 0 0 1-3.443 1.644c-.657.269-1.39.42-2.1.479-.963.08-1.938.02-2.908.02-3.178.128-6.304-.184-9.271-1.393a12.283 12.283 0 0 1-4.579-3.22c-.241-.27-.493-.55-.792-.744-1.493-.965-2.409-2.392-3.071-3.969-1.122-2.67-1.983-5.415-2.396-8.268.284-.158.235-.2.789-.554.977-.625 1.927-1.293 2.991-2.012.203.578.368.963.475 1.365.53 2.014 1.003 4.045 1.585 6.044.258.884.67 1.736 1.105 2.553 1.234 2.321 3.373 3.7 5.566 4.895 1.187.646 2.625.851 3.967 1.186 2.816.703 5.575 1.45 8.565.495 2.328-.743 4.109-2.097 5.643-3.845.661-.754 1.018-1.778 1.505-2.683 1.504-2.788 2.517-5.705 2.357-8.935-.014-.282.08-.57.14-.945.297.136.486.21.661.307 1.476.823 2.943 1.663 4.436 2.454-.018.556-.03 1.111-.015 1.666m-6.841-23.296c-.603-.715-1.479-1.322-2.353-1.666-3.72-1.465-7.697-1.896-11.589-2.66-.34-.067-.73-.001-1.074.09-3.686.98-7.431 1.81-10.57 4.187-.381.29-.869.436-1.274.701-.606.398-1.275.755-1.752 1.28-1.728 1.903-3.092 4.105-3.887 6.51-.792 2.399-1.028 4.975-1.645 7.439-.558 2.228.037 4.356.355 6.497.475 3.2 1.308 6.366 3.026 9.106 1.892 3.018 4.644 5.252 7.858 6.834 3.072 1.513 6.377 1.827 10.35 1.723 2.043.197 4.6-.033 6.87-1.613.294-.205.654-.317.987-.464 2.126-.938 4.074-2.122 5.695-3.83 1.417-1.494 3.013-2.826 4.35-4.383 1.567-1.826 2.564-3.954 2.552-6.459-.006-1.393-.074-2.812.155-4.174.774-4.603-.932-8.658-2.964-12.5-1.284-2.428-3.294-4.488-5.09-6.618M302.479 92.252a46.33 46.33 0 0 1-.044 1.623c-1.475-.857-2.953-1.708-4.409-2.596-.248-.152-.468-.504-.522-.797-.325-1.75-.7-3.502-.852-5.271-.113-1.322-.52-2.459-1.177-3.58-1.267-2.159-3.014-3.908-5.02-5.288-1.464-1.007-3.223-1.693-4.947-2.176-1.239-.346-2.64-.199-3.962-.135-2.651.127-5.153.645-7.04 2.804-.648.742-1.566 1.242-2.301 1.917-.86.79-1.84 1.537-2.438 2.507-1.521 2.467-2.328 5.238-2.987 8.051-.146.627-.341 1.427-.798 1.764-1.461 1.08-2.202 1.622-3.524 2.518-.035-.355-.068-.71-.088-1.068-.042-.784-.105-1.59.024-2.357.373-2.21.792-4.414 1.28-6.602.54-2.419 1.954-4.424 3.29-6.444.929-1.407 2.435-2.099 3.814-2.99 1.968-1.271 4.07-2.15 6.263-2.851 1.479-.473 2.987-.602 4.58-.645 2.546-.067 4.913.607 7.341 1.001 3.662.596 6.248 2.817 8.523 5.69 2.358 2.975 3.751 6.366 4.842 9.877.48 1.55.158 3.357.152 5.048m-6.74-.44c-.851.658-1.402.968-2.158 1.474.003-.151.01-.302.009-.456a2.262 2.262 0 0 1 .109-.715c.78-2.38-.08-4.66-.97-6.67-2.19-4.948-6.51-7.035-12.18-7.74-.584.192-1.625.458-2.606.867-2.86 1.193-4.507 3.647-5.931 6.183-1.155 2.056-2.02 4.343-1.647 6.77.124.81.29 1.624.492 2.427a18.736 18.736 0 0 1-1.402-1.152c-2.137-1.954-2.189-1.985-1.33-4.743.59-1.9 1.212-3.826 2.141-5.568.66-1.237 1.829-2.215 2.829-3.252.584-.605 1.313-1.068 1.925-1.65 1.312-1.245 2.797-2.137 4.634-2.232 1.811-.094 3.66-.321 5.43-.06 1.477.217 3 .844 4.253 1.67 1.832 1.207 3.388 2.769 4.757 4.558 1.453 1.898 1.539 4.006 1.688 6.183.065.963.333 1.913.388 2.876.023.411-.136 1.003-.43 1.23m-22.617-6.632c1.31-2.32 2.877-4.502 5.466-5.668 1.152-.52 2.26-.794 3.504-.36.856.299 1.747.501 2.63.715 3.403.824 5.667 3.13 6.974 6.145.75 1.732 1.523 3.734.855 5.806-.072.226-.078.48-.073.722.084 4.343-1.905 7.498-5.502 9.782-1.12.712-2.09 1.703-3.172 1.6-5.46-.243-9.457-3.392-11.063-7.772-.209-.568-.325-1.173-.56-1.73-1.377-3.255-.69-6.352.94-9.24m-1.341 11.602c2.066 4.93 5.76 7.81 11.168 8.324 1.327.126 2.523-.228 3.604-.979.597-.415 1.157-.881 1.745-1.31 2.906-2.11 4.744-4.786 5.185-8.205l.105-.062c.96-.56 1.345-.745 2.46-1.41 0 .825.06 1.56-.01 2.28-.31 3.133-1.663 5.918-3.313 8.485-1.18 1.837-3.082 3.041-5.22 3.76-2.177.73-4.32.767-6.497-.011-.734-.263-1.528-.457-2.303-.49-1.835-.079-3.254-.989-4.657-2.034-1.51-1.124-3.123-2.13-3.944-3.926a15.61 15.61 0 0 1-.85-2.287c-.52-1.878-.985-3.772-1.472-5.66l.354-.119c.748.652 1.495 1.307 2.249 1.952.15.13.622.38.956.517.135.397.279.791.44 1.175m30.595.011c.044 1.674-.56 3.159-1.479 4.414-1.748 2.388-3.536 4.788-5.904 6.62-1.19.921-2.512 1.684-3.827 2.426a30.213 30.213 0 0 1-3.443 1.644c-.657.269-1.39.42-2.1.479-.963.08-1.938.02-2.908.02-3.178.128-6.305-.184-9.271-1.393a12.283 12.283 0 0 1-4.579-3.22c-.241-.27-.492-.55-.792-.744-1.494-.965-2.409-2.392-3.071-3.969-1.122-2.67-1.983-5.415-2.396-8.268.284-.158.235-.2.789-.554.977-.625 1.927-1.293 2.991-2.012.203.578.368.963.475 1.365.53 2.014 1.003 4.045 1.584 6.044.259.884.672 1.736 1.106 2.553 1.235 2.321 3.373 3.7 5.566 4.895 1.187.646 2.625.851 3.967 1.186 2.816.703 5.575 1.45 8.565.495 2.329-.743 4.11-2.097 5.643-3.845.661-.754 1.018-1.778 1.506-2.683 1.503-2.788 2.516-5.705 2.356-8.935-.014-.282.08-.57.14-.945.297.136.486.21.66.307 1.478.823 2.944 1.663 4.437 2.454-.018.556-.03 1.111-.015 1.666m-6.841-23.296c-.603-.715-1.48-1.322-2.352-1.666-3.722-1.465-7.697-1.896-11.59-2.66-.34-.067-.73-.001-1.074.09-3.686.98-7.431 1.81-10.57 4.187-.381.29-.869.436-1.274.701-.605.398-1.275.755-1.752 1.28-1.728 1.903-3.092 4.105-3.887 6.51-.792 2.399-1.028 4.975-1.645 7.439-.558 2.228.037 4.356.355 6.497.475 3.2 1.308 6.366 3.026 9.106 1.892 3.018 4.644 5.252 7.858 6.834 3.072 1.513 6.376 1.827 10.35 1.723 2.043.197 4.6-.033 6.87-1.613.295-.205.654-.317.987-.464 2.126-.938 4.074-2.122 5.696-3.83 1.416-1.494 3.012-2.826 4.35-4.383 1.566-1.826 2.563-3.954 2.552-6.459-.007-1.393-.075-2.812.154-4.174.774-4.603-.932-8.658-2.964-12.5-1.284-2.428-3.294-4.488-5.09-6.618M256.722 73.962c-.153 1.26-.108 2.545-.175 3.818-.01.21-.07.42-.146.715a272.45 272.45 0 0 1-2.916-3.484c.277-.352.535-.44.963-.782.732-.583 1.523-1.092 2.251-1.677.092.385.091.85.023 1.41zm-10.868 4.94a2.308 2.308 0 0 0-.205-.22c-1.001-.922-1.279-1.106-2.317-1.986a29.13 29.13 0 0 0-1.881-1.432c1.159.075 1.854.042 2.499.062 2.871.088 4.98.04 7.849.19.158.008.385-.042.578.05.182.087.531.338.63.453.591.689.92 1.048 1.762 2.268.242.286.38.467.495.616h-9.41zm-1.04 15.63c-.193 2.903-.456 5.774-.144 8.714.24 2.259-.194 4.59-.338 6.889-.016.268-.07.51-.162.72-.894-.405-2.371-1.942-3.091-2.634-.095-.601-.119-2.945-.198-4.377.005-2.999-.33-5.105-.128-8.38.173-2.813.113-5.64.154-8.462.036-2.484.072-4.967.101-7.45.01-.857-.01-2.228-.01-3.255.928.707 1.407 1.212 1.678 1.37 1.022.92 1.28 1.248 2.234 2.16-.04 1.37-.129 2.617.056 3.814.565 3.654.089 7.266-.152 10.89zm-1.795 17.039c-1.635.008-3.279.046-4.901-.113-.38-.037-.675-.107-.914-.211 1.218-.766 3.1-2.097 3.329-2.083.16.009 1.76 1.397 2.916 2.34-.129.038-.268.066-.43.067zm-6.418-.865c-.145-.28-.21-.653-.225-1.148-.091-2.784-.065-5.57-.153-8.355-.048-1.515-.306-3.024-.335-4.538-.062-3.21-.04-6.422-.045-9.632-.003-2.171.013-4.342-.01-6.512.137-.147.269-.3.407-.445.976-1.02 3.197-2.998 3.6-3.477.076 1.347.136 3.315.146 4.662.015 1.997-.058 3.995-.089 5.993-.022 1.425.002 2.851-.059 4.273-.095 2.21-.073 3.053-.059 5.26.02 3.178.277 5.843.406 9.02.034.836.032 1.964.032 2.565-.506.349-.912.62-1.487.919-.773.58-1.457.98-2.129 1.415zm-1.085-31.526c-1.298.128-2.451.322-3.604.328-2.205.012-4.413-.076-6.679-.13.16-.174.299-.383.46-.544.771-.767 1.497-1.578 2.28-2.33.325-.311.88-1.135 1.52-1.14.762-.004 2.7.086 3.726.05 2.326-.08 3.057-.057 5.388 0 .064.003.704-.033 1.006-.008-.574.492-1.76 1.492-2.283 1.989a64.87 64.87 0 0 0-1.814 1.785zm-11.366-6.85c.92.892 2.35 1.898 3.33 2.908-.856.826-1.911 1.88-2.863 2.828-.415-1.87-.481-3.747-.467-5.735zm5.725-1.166c4.024-.418 7.97.507 11.957.56 2.356.03 4.715-.304 7.075-.442 1.694-.1 3.397-.273 5.085-.187.958.05 1.616.21 2.053.498-.767.601-1.164 1.024-2.057 1.705-.404.308-.855.655-1.435 1.109-.495.09-1.85.087-2.366.076-2.33-.054-3.914-.114-6.243-.102-3.387.018-5.255-.066-8.64.037-1.261.039-5.392-.091-6.743-.087-1.317-.836-2.764-2.094-3.58-2.856-.029-.027-.058-.058-.087-.087 1.732-.052 3.369-.056 4.981-.224zm26.688-.52c-1.431-.307-2.831-.486-4.32-.357-3.382.292-6.778.546-10.168.548-2.163.001-4.322-.629-6.492-.705-3.755-.132-7.517-.046-11.276-.073-.75-.005-1.179.351-1.233 1.043-.06.782-.006 1.574.03 2.361.068 1.576.216 3.15.225 4.725.011 2.215.17 2.429 2.316 2.43.303 0 .606-.028.91-.028 2.184.004 4.37-.019 6.552.028 1.629.035 1.84.275 1.859 1.962.017 1.517.078 3.046-.068 4.552a46.5 46.5 0 0 0 .216 10.901c.15 1.079.154 2.18.168 3.273.04 3.152.058 6.305.07 9.458.003.921.351 1.387 1.33 1.6 2.834.618 5.655.148 8.789.254 0-1.438-.02-2.582.004-3.725.045-2.18.302-4.375.116-6.533-.163-1.893-.113-3.745-.026-5.627.174-3.752.925-7.478.506-11.26-.146-1.324-.2-2.662-.236-3.996-.036-1.381.145-1.62 1.548-1.615 2.786.01 5.586-.026 8.353.247 1.71.17 2.037-.558 2.07-1.752.062-2.118-.042-4.242-.07-6.364-.01-.79-.38-1.177-1.173-1.347zM215.373 104.224c-1.487 3.859-4.373 6.106-8.277 7.244-4.32 1.258-8.512.724-12.647-.745-.842-.3-1.61-.835-2.375-1.322-.575-.365-.985-.63-1.27-.875.92-.404 1.622-.74 2.66-1.143.259-.1.574-.201.828-.145 2.138.473 3.526.933 5.674 1.345 3.19.613 6.246.362 9.205-1.247 2.468-1.342 3.625-4.41 3.407-6.632-.253-2.589-1.16-4.994-3.345-6.561-2.598-1.864-5.333-3.538-8.027-5.267-2.682-1.722-4.716-3.94-5.155-7.206-.129-.957.059-2.115.515-2.957.79-1.458 2.123-2.427 3.828-2.73 1.1-.194 2.2-.402 3.309-.539.953-.1 3.143.329 4.405.763 1.182.42 1.325.444 2.107.8.265.331.467.983.609 1.299.238.715.41 1.159.636 1.634-.42-.164-.818-.327-1.206-.512-2.484-1.182-5.083-1.549-7.79-1.142a5.67 5.67 0 0 0-1.556.483c-1.53.724-2.031 2.046-1.393 3.628.939 2.328 2.75 3.817 4.925 4.87 1.907.921 3.904 1.654 5.813 2.572.8.384 1.614.912 2.175 1.581 1.199 1.43 2.436 2.89 3.298 4.528 1.446 2.748.694 5.56-.353 8.276m-24.772 1.38c.279-1.176.577-2.348.888-3.516.033-.124.15-.231.319-.418.477 1.055 1.648 4.131 1.774 4.36-.196.133-.388.201-.618.294-1.054.426-1.73.8-2.698 1.198-.017-.431.118-1.007.335-1.919m5.287-2.52a63.477 63.477 0 0 0 5.224 1.526c2.075.501 4.12-.294 4.994-2.046 1.127-2.262.938-4.072-.636-5.712-.866-.903-1.923-1.774-3.065-2.221-1.76-.69-3.1-1.88-4.503-3.022-1.41-1.15-2.763-2.367-4.151-3.543-2.477-2.098-3.34-6.518-2.14-9.497 1.573-3.904 4.451-6.047 8.403-7.04 1.815-.457 3.558-1.262 5.503-.958 2.155.339 4.29.691 6.252 1.776.89.492 1.888.808 2.979 1.21-.467.273-.91.538-1.56.806-1.156.63-1.77 1.016-2.843 1.41-1.097-.183-2.938-.755-4.013-1.038-2.486-.655-4.917-.266-7.282.459-2.213.678-4.415 2.943-4.292 5.84.1 2.324 1.035 4.29 2.52 5.982 2.209 2.514 5.086 4.16 7.983 5.72 1.712.921 3.301 1.958 4.488 3.498 1.162 1.507 1.853 3.249 1.702 5.172-.257 3.278-2.202 5.28-5.283 5.978-1.17.265-2.392.303-3.574.442-.52-.05-1.025-.056-1.513-.15a96.276 96.276 0 0 1-4.518-.971c-.658-.157-.905-.235-1.628-.52-.32-.307-.674-1.027-.89-1.58-.316-.984-.594-1.696-.926-2.617.935.398 1.84.785 2.769 1.096m17.046-22.828c-.578-1.25-.813-1.925-1.417-3.194-.213-.447.371-.925.792-1.112.92-.408 1.777-.788 2.644-1.21-.66 1.808-1.313 3.59-2.02 5.516m-2.752 8.151c-1.793-.733-3.595-1.456-5.338-2.298-1.713-.828-3.183-2.02-4.09-3.73-.663-1.249-.208-2.245 1.116-2.736.45-.167.939-.303 1.413-.313 2.26-.052 4.478.157 6.557 1.172 1.067.521 2.165.978 3.478 1.565l3.337-8.475c-1.11-1.247-2.677-1.251-3.795-2.009-2.058-1.398-4.382-1.754-6.713-2.039-1.292-.158-2.644.043-3.953.211-.893.115-1.756.465-2.637.69-3.953 1.01-6.73 3.223-8.791 6.92-1.86 3.332-.224 9.732 2.32 11.711 1.528 1.19 2.945 2.527 4.426 3.78 1.294 1.092 2.585 2.143 4.226 2.77 1.042.397 2.01 1.156 2.824 1.945 1.651 1.603 1.215 4.692-.807 5.583-.766.338-1.772.303-2.642.205-2.808-.32-5.377-1.39-7.843-2.736-.691-.377-1.427-.676-2.45-.228-.588 2.362-1.187 4.823-1.82 7.275-.185.715.122 1.22.638 1.566 1.204.81 2.372 1.758 3.7 2.284 5.123 2.032 10.355 2.38 15.626.519 2.167-.766 4.123-2.052 5.433-3.842 1.447-1.977 2.778-4.066 3.11-6.74.463-3.74-.6-6.808-2.959-9.561-1.23-1.435-2.562-2.75-4.366-3.489M129.08 35.84c-1.487 3.859-4.373 6.106-8.277 7.244-4.32 1.258-8.513.724-12.647-.745-.842-.3-1.61-.835-2.376-1.322-.574-.365-.984-.63-1.27-.874.921-.405 1.623-.741 2.66-1.143.26-.1.575-.202.83-.146 2.137.473 3.525.933 5.674 1.346 3.189.612 6.245.361 9.204-1.248 2.468-1.342 3.625-4.41 3.407-6.632-.253-2.589-1.16-4.994-3.345-6.561-2.598-1.864-5.333-3.538-8.027-5.267-2.682-1.722-4.717-3.939-5.155-7.206-.128-.957.06-2.115.515-2.957.79-1.458 2.122-2.427 3.828-2.73 1.1-.194 2.2-.402 3.309-.538.953-.1 3.143.328 4.405.762 1.182.42 1.325.444 2.107.8.265.331.467.984.609 1.299.238.715.41 1.159.636 1.634-.42-.164-.818-.327-1.206-.512-2.484-1.181-5.083-1.548-7.79-1.142a5.67 5.67 0 0 0-1.556.484c-1.53.723-2.031 2.045-1.393 3.627.939 2.329 2.75 3.818 4.925 4.87 1.907.921 3.904 1.654 5.813 2.572.8.385 1.614.912 2.175 1.582 1.199 1.43 2.436 2.89 3.298 4.527 1.446 2.748.694 5.56-.353 8.276m-24.772 1.38c.278-1.176.577-2.348.888-3.515.033-.125.15-.232.319-.42.477 1.056 1.648 4.132 1.774 4.361-.196.133-.388.201-.618.294-1.054.426-1.73.8-2.698 1.199-.017-.432.118-1.008.335-1.92m5.286-2.52a63.494 63.494 0 0 0 5.225 1.526c2.075.501 4.121-.294 4.994-2.046 1.127-2.262.938-4.071-.636-5.712-.866-.902-1.923-1.774-3.065-2.221-1.76-.69-3.1-1.88-4.503-3.022-1.41-1.149-2.763-2.367-4.152-3.543-2.476-2.098-3.34-6.518-2.139-9.497 1.573-3.904 4.451-6.046 8.403-7.04 1.815-.456 3.558-1.261 5.503-.957 2.155.338 4.29.69 6.252 1.775.89.492 1.888.808 2.979 1.21-.467.273-.91.538-1.56.806-1.156.63-1.769 1.016-2.843 1.41-1.097-.183-2.938-.755-4.013-1.038-2.486-.655-4.917-.266-7.283.459-2.212.679-4.414 2.943-4.291 5.84.1 2.324 1.035 4.29 2.52 5.982 2.208 2.515 5.086 4.16 7.983 5.72 1.712.921 3.302 1.958 4.488 3.498 1.162 1.508 1.852 3.249 1.702 5.172-.257 3.278-2.202 5.28-5.283 5.978-1.17.265-2.392.303-3.574.442-.52-.05-1.025-.055-1.513-.15a96.276 96.276 0 0 1-4.518-.97c-.658-.157-.905-.236-1.628-.52-.32-.308-.674-1.028-.89-1.58-.316-.985-.594-1.696-.926-2.618.935.398 1.84.786 2.768 1.096m17.047-22.828c-.578-1.25-.813-1.925-1.417-3.194-.213-.447.371-.925.792-1.112.92-.408 1.776-.788 2.644-1.209-.662 1.807-1.313 3.589-2.02 5.515m-2.752 8.151c-1.793-.733-3.595-1.456-5.338-2.298-1.713-.828-3.183-2.02-4.09-3.73-.663-1.249-.209-2.245 1.116-2.736.45-.166.939-.302 1.413-.313 2.26-.052 4.478.157 6.557 1.173 1.067.52 2.165.977 3.478 1.564l3.337-8.474c-1.11-1.247-2.677-1.252-3.795-2.01-2.058-1.397-4.382-1.754-6.713-2.039-1.292-.158-2.644.043-3.952.211-.894.115-1.757.466-2.638.69-3.953 1.01-6.73 3.223-8.791 6.92-1.86 3.332-.224 9.732 2.32 11.711 1.528 1.19 2.944 2.527 4.426 3.78 1.294 1.093 2.585 2.143 4.226 2.77 1.042.397 2.01 1.156 2.824 1.945 1.651 1.603 1.215 4.692-.807 5.583-.766.338-1.772.304-2.642.205-2.808-.32-5.377-1.39-7.843-2.736-.691-.377-1.427-.676-2.45-.227-.588 2.36-1.188 4.822-1.82 7.274-.185.715.122 1.22.637 1.567 1.205.81 2.373 1.757 3.7 2.283 5.124 2.032 10.356 2.38 15.627.519 2.167-.766 4.123-2.052 5.433-3.842 1.446-1.977 2.778-4.066 3.11-6.739.463-3.74-.6-6.809-2.959-9.562-1.229-1.435-2.562-2.75-4.366-3.489M172.13 39.593c-.828-.491-1.67-.963-2.544-1.36-.547-.248-.68-.474-.482-1.022.32-.884.624-1.774.916-2.667.901 1.342 1.47 2.831 2.032 4.322.102.272.121.513.078.727m-6.666 3.3c-3.18.529-6.346.958-9.577.845-2.303-.08-4.396-.641-6.248-2.112-.888-.705-2.024-1.09-2.959-1.746-3.613-2.541-6.424-5.695-7.436-10.156.563-2.13-.907-4.102-.49-6.219.458-2.318.878-4.646 1.415-6.945.289-1.236.784-2.424 1.19-3.633 1.197-3.572 3.663-6.15 6.756-8.068 1.353-.839 3.034-1.218 4.615-1.606 3.367-.827 6.792-1.267 10.267-.914 1.02.104 2.046.296 3.025.594a63.229 63.229 0 0 1 4.626 1.63c.664.26 1.027.457 1.175.771-.233.045-.469.102-.703.124-1.926.188-3.67 1.593-5.827.464-1.078-.565-2.545-.446-3.842-.51-2.015-.099-4.036-.107-6.054-.116-.66-.002-1.375-.026-1.966.21-1.305.52-2.53 1.235-3.819 1.803-2.517 1.11-4.001 3.35-5.552 5.384-2.016 2.642-2.417 5.888-2.252 9.163.05.995.306 1.978.39 2.973.335 3.899 1.5 7.4 4.141 10.438 1.942 2.235 4.209 3.83 6.991 4.637 1.736.504 3.556.886 5.354.968 2.542.116 5.063-.252 7.465-1.243a5.54 5.54 0 0 1 2.182-.414c1.103.025 2.11.424 2.895 1.29.012.013.028.025.04.039-1.856.965-3.656 1.99-5.802 2.348m4.591-31.082c-1.241-1.006-1.572-2.464-1.998-3.857-.041-.138.156-.449.315-.526.349-.168.74-.263 1.123-.344.75-.157 1.505-.294 2.254-.453-.48 1.774-1.133 3.5-1.694 5.18m-6.89-1.392c-2.97-.425-5.914-.223-8.778.86-4.259 1.613-7.446 6.706-6.964 11.256.077.723.172 1.464.095 2.179-.363 3.37 1.316 5.846 3.574 7.978 2.779 2.623 6.336 3.15 9.952 3.098 2.605-.037 5.19-.469 7.55-1.736.178-.095.392-.121.622-.152-.208.619-.397 1.246-.663 1.84-.363.81-.719 1.744-1.365 2.273-.689.565-1.69.829-2.597 1.03-2.824.628-5.661.987-8.559.33-2.995-.679-5.802-1.58-7.998-3.952-2.044-2.208-3.682-4.592-4.264-7.574-.318-1.633-.407-3.31-.716-4.947-.457-2.408.009-4.71.654-6.996.203-.72.463-1.475.896-2.068 1.772-2.429 3.758-4.627 6.463-6.109 1.414-.774 2.813-1.395 4.447-1.345.888.028 1.776.079 2.664.065.537-.009 1.078-.208 1.606-.169 1.718.129 3.435.286 5.14.522a4.862 4.862 0 0 1 1.84.683c.254.158.245.71.397 1.065.422.992.805 2.006 1.274 2.972-1.853-.434-3.552-.857-5.27-1.103m7.819 23.318c-.233-.494-.448-.836-.68-1.066a2.051 2.051 0 0 1-.055-.207c-.03.022-.065.042-.097.062-.474-.344-1.044-.2-1.985.384-3.124 1.937-6.56 2.02-10.026 1.603-1.421-.171-2.967-.503-4.147-1.251-3.13-1.988-5.527-4.577-5.258-8.699.02-.301-.024-.607-.023-.569l-.086-1.25c-.374-5.544 3.093-10.479 9.373-11.13 3.974-.411 7.881-.074 11.524 1.828.968.507 1.366.244 1.691-.834.437-1.45.965-2.871 1.377-4.327.208-.733.33-1.492.44-2.25.009-.012.012-.02.023-.03-.007-.004-.011-.01-.017-.014l.053-.371c.095-.67-.204-1.205-.822-1.485-2.706-1.23-5.398-2.64-8.378-2.93-3.94-.385-7.901-.178-11.724 1.006-1.845.571-3.794 1.09-5.392 2.11-3.297 2.108-5.565 5.077-6.792 8.925-.982 3.082-1.717 6.209-2.268 9.367-.503 2.882-.326 5.799.89 8.556.22.498.329 1.046.566 1.532.58 1.189 1.044 2.48 1.842 3.506 2.492 3.206 5.777 5.47 9.294 7.421 2.447 1.358 5.138 1.367 7.804 1.31 2.232-.048 4.445-.4 6.665-.697 3.078-.414 5.645-1.759 8.207-3.26.897-.524.951-.992.484-1.986-.824-1.754-1.657-3.502-2.483-5.254M125.571 100.921c-.792 3.998-2.823 7.194-6.772 8.847-.503.21-.991.459-1.486.69-2.481 1.156-5.12 1.36-7.804 1.296-.848-.02-1.697-.032-2.545-.046-2.714-.043-5.232-.621-7.559-2.166-3.53-2.344-4.905-5.867-5.636-9.76-.367-1.962-.42-3.982-.765-5.95a39.176 39.176 0 0 1-.577-7.615c.087-4.246.177-8.492.278-12.737.001-.053.005-.107.007-.161.039.033.077.068.116.1.988.772 1.542 1.28 2.574 1.99.705.487.819 1.102.78 1.872-.187 3.665-.468 7.208-.638 10.874-.163 2.898.493 5.67 1.302 8.407.533 1.8 1.192 3.563 1.785 5.346.673 2.021 1.733 3.763 3.726 4.7 1.766.83 3.45 1.76 5.426 2.232 2.714.646 5.02.405 7.557-.5 1.816-.65 2.93-2.203 4.356-3.35 1.929-1.551 2.53-3.704 2.441-6.097-.03-.818-.16-1.64-.115-2.452.15-2.749.345-5.496.552-8.24.193-2.57.49-5.133.617-7.706.089-1.805-.037-3.621-.055-5.432-.001-.198.01-.477.134-.583.7-.604 1.619-1.505 2.35-2.071.211-.163.517-.248.682-.424.071.256.105.572.111.981.092 5.766.085 11.534.228 17.298.09 3.609-.376 7.154-1.07 10.657M92.853 71.56c2.497-.428 4.914-.932 7.414-.22-.14.087-.271.227-.396.338-.84.742-1.704 1.46-2.5 2.249-.588.584-1.079.628-1.707.068-.858-.763-1.38-1.143-2.234-1.91-.195-.175-.378-.386-.58-.491l.003-.034m8.57 25.124c.385 2.736 1.962 4.64 3.994 6.26 1.068.852 2.344 1.365 3.729 1.208 1.56-.177 3.143-.386 4.641-.834 1.828-.547 2.412-2.295 3.006-3.872.359-.951.54-2.007.598-3.028.141-2.477.228-4.962.22-7.444-.016-4.188-.115-8.376-.199-12.564-.017-.848-.173-1.693-.17-2.539.004-.643.068-1.288.135-1.997.7.627 1.781 1.272 2.527 1.77 1.57 1.048 2.554 2.331 2.38 4.335-.174 2.017-.237 4.043-.4 6.061-.23 2.84-.57 5.67-.745 8.513-.128 2.082-.107 4.177-.078 6.265.033 2.372-.69 4.347-2.678 5.766-.467.333-.903.717-1.32 1.115-2.13 2.034-4.502 2.58-7.351 2.291-2.513-.254-4.696-1.359-6.875-2.49-1.167-.605-2.043-1.496-2.496-2.774a279.185 279.185 0 0 0-1.883-5.121c-1.057-2.802-1.78-5.7-1.749-8.687.043-4.264.433-8.403.62-12.666.013-.287.061-.665.245-.838a97.924 97.924 0 0 1 3.398-3.026c-.04 3.902-.03 7.744-.17 11.578-.156 4.264.03 8.492.622 12.718m23.3-25.6c.3.015.54.05.746.104-.833.567-1.776 1.382-2.536 1.967-.592.454-1.052.675-1.722.042-.841-.793-2.26-1.473-3.221-2.15 2.355-.01 4.552-.075 6.734.037m2.668.687c-.243-1.344-.537-1.662-1.907-1.702a210.05 210.05 0 0 0-7.453-.074c-1.367.01-1.873.516-1.873 1.872 0 1.086.21 2.172.213 3.258.026 6.91.701 13.823-.058 20.729-.125 1.141-.248 2.322-.643 3.385-.476 1.282-1.03 2.717-2.536 3.113-1.337.353-2.744.513-4.13.577-.75.035-1.636-.12-2.255-.515-2.207-1.407-3.89-3.247-4.287-5.997-.74-5.13-1.02-10.263-.416-15.432.125-1.07-.054-2.175-.063-3.264-.015-1.754-.114-3.516.022-5.26.14-1.801-.041-2.02-1.773-2.421-2.585-.6-5.061.128-7.572.4-.342.037-.752.56-.902.948-.166.427-.085.957-.086 1.442-.005 2.793-.002 5.586-.002 8.379-.156 4.36-.605 8.729.372 13.06.266 1.179.459 2.399.481 3.603.066 3.454 1.257 6.476 3.04 9.392 1.601 2.616 3.934 3.984 6.738 4.816 1.994.592 4.028.69 6.095.805 3.006.169 5.855-.078 8.748-1.058 4.754-1.612 7.916-4.731 9.323-9.427.757-2.525 1.126-5.248 1.165-7.89.109-7.155-.05-14.314-.112-21.471a7.491 7.491 0 0 0-.13-1.268M257.677 18.051c-.999 2.136-2.06 4.274-3.367 6.226-2.009 3-3.57 6.183-4.88 9.534-1.1 2.817-2.42 5.548-3.66 8.309a1.57 1.57 0 0 1-.273.384c-.062-1.734-.194-3.467-.191-5.2.001-1.35-.04-2.804.42-4.03.91-2.433 2.094-4.77 3.278-7.09 1.083-2.123 2.333-4.162 3.476-6.257a182.65 182.65 0 0 0 2.788-5.306c.9-1.784 1.77-3.584 2.603-5.4.394-.858.728-1.696 1.643-2.184 1.12-.6 2.193-1.288 3.273-1.959.224-.139.447-.283.669-.427-.754 1.73-1.445 3.31-2.122 4.888-1.217 2.839-2.35 5.716-3.657 8.512m-12.434 5.844c.313-.5.63-.984.862-1.506a561.637 561.637 0 0 0 3.627-8.328c.38-.891.61-1.854 1.042-2.717 1.192-2.376 2.444-4.723 3.693-7.07.003-.003.004-.005.006-.01.85.942 1.754 1.836 2.585 2.792.188.215.277.688.176.953-.332.872-.761 1.708-1.172 2.55-1.17 2.396-2.275 4.828-3.543 7.172-2.107 3.895-4.32 7.73-6.493 11.589-.104.185-.242.352-.42.607-.076-.219-.126-.299-.128-.38-.031-1.664-.15-3.919-.218-5.58 0-.028-.012-.048-.017-.072M256.55 3.018c2.195.04 4.399.136 6.825.224a131.463 131.463 0 0 0-4.232 2.62c-1.013.66-.989.65-1.769-.318a17.731 17.731 0 0 0-2.092-2.174c.364-.235.792-.36 1.268-.352m-12.214 25.36c-.02 1.22-.004 2.443-.004 3.665l-.383.043c-.223-.543-.429-1.095-.675-1.628-.624-1.35-1.293-2.678-1.895-4.036-1.029-2.321-1.739-4.78-3.28-6.873-.747-1.014-1.457-2.15-1.81-3.341-.912-3.082-2.416-5.877-3.801-8.737-.097-.2-.055-.624.091-.76.995-.92 2.056-1.77 3.046-2.696 0 0 0-.002.002-.003.192.286.345.617.485.959 1.221 2.975 2.458 5.944 3.672 8.92 1.076 2.634 2.118 5.281 3.198 7.912.312.763.644 1.528 1.376 2.14-.076 1.32 0 3.15-.022 4.434m-.04 12.987l-.003.247c-.746-1.292-1.261-2.64-1.889-3.926-1.438-2.943-2.882-5.882-4.276-8.846-.567-1.204-.984-2.478-1.514-3.7a74.207 74.207 0 0 0-1.618-3.45 580.069 580.069 0 0 0-3.6-7.133c-.524-1.02-.99-2.107-1.697-2.99-1.71-2.133-2.448-4.734-3.634-7.116-.019-.036-.025-.079-.035-.119.375.193.767.363 1.14.56 1.582.84 3.245 1.663 4.2 3.221a38.448 38.448 0 0 1 2.773 5.503c.858 2.098 1.64 4.221 2.76 6.2.654 1.154 1.386 2.275 1.925 3.482 1.572 3.512 3.063 7.06 4.588 10.593.293.68.806 1.343.851 2.038.118 1.805.03 3.623.028 5.436M234.122 3.08c.177.018.333.058.48.108-.091.068-.178.144-.254.219-.536.53-1.015 1.12-1.57 1.63-1.294 1.184-1.7 1.107-3.124.087-.956-.684-1.997-1.249-3.044-1.798 2.504-.524 5.003-.497 7.512-.246m30.985.653c.625-1.278.32-1.642-1.189-1.678-1.632-.038-3.263-.242-4.894-.242-1.321 0-2.648.151-3.96.331-.363.05-.82.368-.993.691l-.181.345-.004.001.001.004c-1.272 2.392-2.528 4.796-3.709 7.234-.818 1.686-1.484 3.445-2.235 5.164-.606 1.386-1.244 2.759-1.854 4.142-.403.911-.782 1.833-1.351 3.169-3.245-7.3-5.798-14.384-8.833-21.123l-11.507.35c.13 1.025.054 1.732.318 2.27 1.228 2.495 2.194 5.129 3.98 7.34.67.829 1.097 1.876 1.53 2.87 1.142 2.608 2.093 5.3 3.787 7.645a9.914 9.914 0 0 1 1.372 2.76c.628 1.974 1.445 3.838 2.415 5.672 1.333 2.517 2.454 5.147 3.674 7.725.754 1.59 1.482 3.195 2.295 4.755.68 1.304 1.626 1.38 2.565.275.193-.228.36-.496.478-.77 1.123-2.617 2.351-5.197 3.315-7.872 1.054-2.924 2.207-5.801 3.952-8.361 1.86-2.727 3.423-5.578 4.631-8.642.845-2.14 1.674-4.292 2.634-6.382 1.189-2.588 2.512-5.113 3.763-7.673M34.183 76.97a457.784 457.784 0 0 1-6.384 11.207c-1.107 1.877-2.37 3.663-3.605 5.462-.429.623-.712 1.16-.512 1.993.037.156.051.318.061.48-.836-.47-2.165-.854-2.87-1.345-.829-.577-.843-.808-.278-1.66.537-.807 1.087-1.854 1.57-2.693.8-1.389 1.45-2.873 2.319-4.216 2.22-3.435 4.951-7.601 7.25-10.985.27-.395.699-.765 1.136-.947 1.05-.438 2.349-1.209 3.503-1.732-.734 1.546-1.41 3.023-2.19 4.435M23.666 97.985c-.015 3.088-.002 6.177-.037 9.265-.012 1.116-.099 2.24-.172 3.497-.727-.587-1.463-1.269-2.198-1.933-.76-.823-1.293-1.228-1.202-2.09.087-.814-.076-1.179 0-1.995a191.25 191.25 0 0 0-.01-6.374c.07-.739-.057-1.643.042-2.43.218.063.578.245.676.3.688.385 2.051.82 2.772 1.126.048.02.104.019.16.02a7.99 7.99 0 0 0-.031.614m-7.014 12.993c.899-.602 1.783-1.227 2.69-1.818.164-.107.505-.115.673-.016.89.87 1.656 1.462 2.388 2.153-1.937.054-3.797-.208-5.75-.319m-.808-.625c-.304-1.648-.674-3.237-.774-4.84-.164-2.66-.341-5.366-.025-7.995.035-.288.05-.565.055-.838 1.068-.345 2.125-.817 3.185-1.166.508-.167.833.071.802.691-.078 1.574.091 2.966-.043 4.534-.208 2.417.078 3.408-.095 5.827-.047.656.124 1.41-.388 1.774a62.928 62.928 0 0 0-2.717 2.013M13.82 92.249c-1.648-2.826-3.024-5.853-4.973-8.45-2.447-3.261-4.271-6.902-6.694-10.158-.153-.206-.265-.454-.412-.78.324.09.649.178 1.011.328.971.402 2.721.95 3.67 1.362 1.108 1.488 3.706 5.636 4.199 6.353.685.998 4.802 7.9 6.147 10.335.563 1.02 1.35 2.054 1.898 3.167-1.225.452-2.475.764-3.628 1.172-.155-1.184-.588-2.25-1.218-3.33m-5.103-20.29c.207.003.435.077.661.19-.363.203-.695.374-1.057.66-.332.264-.886.57-1.456.888-.401.013-1.441-.383-1.771-.538-1.085-.513-1.327-.605-2.325-.967 2.075-.125 4.017-.267 5.948-.233m1.866 1.243c1.786 2.73 3.458 5.537 5.144 8.333.72 1.194 1.347 2.443 2.072 3.633.22.359.517.674.888 1.082.008.362.058.898.058 1.025.005 1.52.003 3.04.003 4.56-.077.02.059.81-.019.83-3.471-5.741-7.403-12.54-11.2-18.335.82-.604 1.711-1.088 2.513-1.731.216.188.406.399.54.603m9.278 12.687c-.002-.016-.012-.03-.015-.044.214-.282.394-.53.549-.792 2.27-3.861 4.548-7.718 6.769-11.61.303-.53.63-.97 1.019-1.303.463.506.997.956 1.546 1.37 1.258.948 1.258.995.372 2.265-2.79 4-6.024 8.772-8.242 13.137-.406.8-1.44 2.883-1.958 3.627-.11-.584-.024-1.986-.032-2.217-.042-1.21.084-3.228-.008-4.433m10.599-14.44c1.746.106 3.51-.088 5.267-.132.131-.003.265.018.427.05-.892.386-1.929 1.042-2.629 1.476-1.689 1.05-2.84.32-3.937-.904-.106-.118-.198-.26-.297-.388.343-.09.727-.13 1.169-.102M28.53 70.32c-.582.007-1.015.197-1.277.809-.426 1-.912 1.982-1.44 2.934-1.413 2.542-2.828 5.085-4.311 7.585-.669 1.125-1.505 2.15-2.362 3.358L10.48 70.88c-3.616-.215-7.023.065-10.402.487-.275 1.097.226 1.778.754 2.452 2.69 3.438 4.787 7.277 7.34 10.819 2.214 3.071 3.75 6.634 5.554 9.997.184.343.222.81.197 1.211-.296 4.983.138 9.93.703 14.871.12 1.051.48 1.355 1.52 1.41 2.298.12 4.595.253 6.894.357.517.022 1.038-.057 1.584-.092 0-2.293-.022-4.4.005-6.504.04-3.03.134-6.06.17-9.09.02-1.76.67-3.213 1.713-4.63 1.032-1.401 1.79-3.007 2.648-4.535.475-.845.876-1.733 1.364-2.57 2.762-4.742 5.54-9.474 8.448-14.44-.633-.142-1.179-.368-1.725-.37-2.905-.01-5.81.035-8.716.067M382.741 76.97a457.783 457.783 0 0 1-6.383 11.207c-1.108 1.877-2.372 3.663-3.606 5.462-.428.623-.712 1.16-.512 1.993.037.156.052.318.061.48-.836-.47-2.165-.854-2.87-1.345-.829-.577-.843-.808-.278-1.66.537-.807 1.087-1.854 1.57-2.693.801-1.389 1.45-2.873 2.319-4.216 2.22-3.435 4.952-7.601 7.251-10.985.269-.395.698-.765 1.135-.947 1.051-.438 2.349-1.209 3.504-1.732-.735 1.546-1.411 3.023-2.191 4.435m-10.517 21.016c-.014 3.088-.001 6.177-.036 9.265-.013 1.116-.1 2.24-.173 3.497-.726-.587-1.463-1.269-2.197-1.933-.76-.823-1.294-1.228-1.203-2.09.087-.814-.076-1.179 0-1.995.029-2.563.032-3.926-.01-6.374.07-.739-.057-1.643.042-2.43.218.063.578.245.676.3.688.385 2.051.82 2.773 1.126.047.02.103.019.158.02a7.99 7.99 0 0 0-.03.614m-7.014 12.993c.899-.602 1.783-1.227 2.69-1.818.164-.107.506-.115.673-.016.891.87 1.656 1.462 2.388 2.153-1.937.054-3.797-.208-5.75-.319m-.808-.625c-.303-1.648-.674-3.237-.773-4.84-.164-2.66-.341-5.366-.026-7.995.035-.288.05-.565.055-.838 1.068-.345 2.125-.817 3.185-1.166.508-.167.833.071.802.691-.078 1.574.091 2.966-.043 4.534-.208 2.417.078 3.408-.095 5.827-.047.656.124 1.41-.388 1.774a62.928 62.928 0 0 0-2.717 2.013m-2.026-18.104c-1.648-2.826-3.024-5.853-4.973-8.45-2.447-3.261-4.27-6.902-6.694-10.158-.153-.206-.265-.454-.411-.78.324.09.648.178 1.011.328.97.402 2.72.95 3.67 1.362 1.107 1.488 3.705 5.636 4.198 6.353.685.998 4.802 7.9 6.147 10.335.563 1.02 1.35 2.054 1.898 3.167-1.225.452-2.475.764-3.628 1.172-.155-1.184-.588-2.25-1.218-3.33m-5.103-20.29c.208.003.435.077.662.19-.364.203-.696.374-1.058.66-.332.264-.886.57-1.456.888-.401.013-1.44-.383-1.771-.538-1.084-.513-1.327-.605-2.325-.967 2.075-.125 4.017-.267 5.948-.233m1.866 1.243c1.786 2.73 3.458 5.537 5.144 8.333.72 1.194 1.347 2.443 2.072 3.633.22.359.517.674.889 1.082.007.362.057.898.058 1.025.004 1.52.002 3.04.002 4.56-.077.02.059.81-.019.83-3.471-5.741-7.403-12.54-11.2-18.335.82-.604 1.711-1.088 2.513-1.731.216.188.406.399.54.603m9.278 12.687c-.002-.016-.011-.03-.014-.044.213-.282.394-.53.548-.792 2.27-3.861 4.549-7.718 6.769-11.61.303-.53.63-.97 1.019-1.303.463.506.997.956 1.546 1.37 1.258.948 1.258.995.372 2.265-2.79 4-6.024 8.772-8.242 13.137-.406.8-1.44 2.883-1.958 3.627-.11-.584-.023-1.986-.032-2.217-.041-1.21.085-3.228-.008-4.433m10.599-14.44c1.746.106 3.51-.088 5.268-.132.13-.003.264.018.426.05-.892.386-1.929 1.042-2.629 1.476-1.688 1.05-2.84.32-3.937-.904-.106-.118-.198-.26-.297-.388.344-.09.727-.13 1.169-.102m6.79-1.194c-2.906-.01-5.811.035-8.716.067-.583.007-1.016.197-1.278.809-.426 1-.911 1.982-1.44 2.934-1.413 2.542-2.828 5.085-4.311 7.585-.668 1.125-1.504 2.15-2.362 3.358l-8.66-14.126c-3.617-.215-7.024.065-10.403.487-.274 1.097.226 1.778.754 2.452 2.69 3.438 4.787 7.277 7.34 10.819 2.214 3.071 3.75 6.634 5.554 9.997.184.343.222.81.198 1.211-.297 4.983.137 9.93.702 14.871.12 1.051.48 1.355 1.52 1.41 2.298.12 4.596.253 6.894.357.517.022 1.038-.057 1.584-.092 0-2.293-.022-4.4.006-6.504.04-3.03.133-6.06.169-9.09.02-1.76.67-3.213 1.713-4.63 1.033-1.401 1.791-3.007 2.648-4.535.475-.845.877-1.733 1.364-2.57 2.762-4.742 5.54-9.474 8.448-14.44-.633-.142-1.179-.368-1.724-.37M92.766 11.852c-.027 3.03-.046 6.059-.094 9.087-.03 1.877-.156 3.752-.15 5.628.012 4.903.077 9.805.108 14.708 0 .185-.019.373-.045.576a8.426 8.426 0 0 1-2.142-1.979c-.513-.666-1.218-1.185-1.198-2.144.026-1.29.046-2.581.052-3.873.014-3.143.003-6.286.038-9.43.013-1.178.05-9.464.06-12.426.005-1.693.03-3.385.059-5.076.008-.522.1-.955.644-1.284.904-.547 1.26-1.054 2.11-1.688.131-.098.26-.21.36-.33.166.245.253.567.25.968-.02 2.42-.03 4.842-.052 7.263m-7.703 31.203c.304-.265.601-.54.918-.79.806-.635 1.6-1.294 2.468-1.833.24-.148.821-.022 1.08.185.837.67 1.618 1.411 2.434 2.108l-6.9.33M85.73 4.33c.738.526 1.31.93 2.14 1.507.194.134.376.438.382.669.047 1.898.086 3.799.055 5.698-.02 1.21-.252 2.418-.226 3.624.038 1.72.274 3.435.334 5.155.044 1.207-.09 2.42-.095 3.632-.013 2.21-.08 4.427.042 6.63.135 2.45-.702 4.872-.135 7.33.058.25-.198.67-.43.875-.877.782-1.81 1.5-2.709 2.26-.097.082-.19.169-.287.253-.063-12.619-.133-25.003.93-37.633m5.614-1.246c-.582.406-.792.766-1.393 1.262-.714.59-1.347.619-2.105.003a28.442 28.442 0 0 0-1.589-1.217c1.773-.023 3.433-.059 5.087-.048m2.222 39.313c-.012-1.997-.105-3.993-.1-5.989.005-2.24.12-4.479.12-6.719 0-1.508-.196-3.016-.166-4.522.12-6.058.301-12.116.443-18.174a40.27 40.27 0 0 0-.046-3.452c-.071-1.14-.419-1.557-1.571-1.586-2.177-.055-4.359-.004-6.536.084-.542.022-1.074.354-1.428.48.12 1.524.357 2.783.284 4.023-.118 1.993-.455 3.974-.669 5.963-.07.657-.073 1.324-.059 1.985.03 1.394.153 2.788.13 4.18-.053 3.088-.216 6.174-.25 9.26a897.904 897.904 0 0 0-.03 13.643c.004.817.18 1.633.28 2.47h9.42c.057-.487.182-1.067.178-1.646" fill="#FFF"/></g></svg>