<svg xmlns="https://www.w3.org/2000/svg" viewBox="0 0 161.5 63.6"><path class="st0" d="M72 12.7V5.6c0-.9-.6-1.4-1.8-1.4h-1.9v-4H85v4h-2.8c-1.1 0-1.8.7-1.8 1.8v18.5c0 1.2.6 1.7 1.8 1.7H85v4H68.4v-4h1.8c1.1 0 1.8-.3 1.8-1.5v-8.1h-9.9v8c0 1.1.6 1.6 1.8 1.6h1.8v4H49.1v-4h2.8c1.1 0 1.8-.7 1.8-1.8V5.5c0-.8-.6-1.2-1.8-1.2H49v-4h16.7v4h-1.9c-1.1 0-1.8.4-1.8 1.9v6.5h10zM94.7 19.6c0 5.3.9 7.6 3.7 7.6 2.7 0 3.7-2.3 3.7-7.6s-.9-7.6-3.7-7.6c-2.8 0-3.7 2.3-3.7 7.6m15.3 0c0 7.2-4.9 11.2-11.6 11.2-6.7 0-11.6-4-11.6-11.2S91.6 8.4 98.3 8.4c6.8 0 11.7 4 11.7 11.2M121.3 19.8c0 4.4 1 7.2 3.6 7.2 2.5 0 3.6-2.8 3.6-7.2s-1-7.2-3.6-7.2c-2.5 0-3.6 2.8-3.6 7.2zm-.3-7.4c1.4-2.7 3.7-4 6.6-4 6.8 0 8.8 5.7 8.8 11.2 0 5.5-2 11.2-8.8 11.2-2.7 0-5.2-1-6.2-3l-.1.1v6.3c0 1.3.3 1.9 1.6 1.9h1.8v3.6h-14.3v-3.6h1.7c1.3 0 1.6-.7 1.6-1.9V14.6c0-1.3-.3-1.9-1.6-1.9h-1.8V9.1H121v3.3zM153.5 17.1v-1.2c0-2.3-1.2-3.9-3.4-3.9s-3.4 1.6-3.4 3.9v1.2h6.8zm-6.9 3.6c0 3.2.7 6.3 4.5 6.3 1.6 0 4.1-1.2 4.6-3.9h5.2c-.7 5.4-6 7.8-10.9 7.8-7.7 0-11.4-4.3-11.4-11.2 0-7 5-11.2 11.4-11.2 7.3 0 11.4 5.2 11.4 12.3h-14.8zM8.6 63.6c-5 0-8.6-3.5-8.6-8.4 0-4.8 3.7-8.4 8.6-8.4 2.1 0 4.1.8 5.4 1.5l-.7 1.5c-1.4-.8-3.2-1.4-4.8-1.4-4.1 0-6.5 2.9-6.5 6.7s2.6 6.7 6.7 6.7c1.5 0 3.4-.6 4.8-1.4L14 62c-1.3.8-3.2 1.6-5.4 1.6M33.5 63.6c-4.4 0-8-3.5-8-8.4s3.8-8.4 8.2-8.4c4.4 0 8 3.5 8 8.4-.1 4.9-3.8 8.4-8.2 8.4m.1-15.2c-3.6 0-6.2 3-6.2 6.8S30 62 33.6 62s6.2-3 6.2-6.8-2.6-6.8-6.2-6.8M55.2 63.3V47.1H57v14.6h7.7v1.6zM77.4 63.3V47.1h1.8v14.6h7.7v1.6zM99.7 63.3V47.1h9.5v1.6h-7.8v5.6h7v1.6h-7v5.8h7.8v1.6zM136.3 55.3v6.4c-1.6 1.2-3.5 1.9-5.9 1.9-4.5 0-8.7-3.3-8.7-8.4 0-5.1 4.3-8.4 8.5-8.4 2.7 0 4.4.8 6.1 2l-.9 1.4c-1.5-1.1-3.3-1.8-5.1-1.8-4.2 0-6.6 3.2-6.6 6.8 0 3.8 3 6.8 6.8 6.8 1.6 0 2.9-.3 4.1-1.1v-4h-4.3v-1.7h6zM150.2 63.3V47.1h9.5v1.6H152v5.6h7v1.6h-7v5.8h7.7v1.6zM40 22.6L27 5.1l-2.5-3.3C23.8.9 22.8.4 21.8.2c-1.8-.4-3.6.1-4.9 1.4L1.2 22.1C.1 23.5-.1 25.6.6 27.2c.7 1.7 2.5 2.9 4.3 3H36.1c.8-.1 1.6-.3 2.2-.7.6-.3 1.1-.9 1.5-1.5 1.1-1.5 1.2-3.9.2-5.4zm-10.5-9.7l-.8.4c-.1-.3-.1-.6 0-.8.2-.2.4-.2.6-.1 1.1.3 1.8 1.5 2 2.5 0 .3 0 .6-.2.8-.3.3-.8.1-1.1-.1-.3-.2-.6-.5-.8-.8l.9-.6c-.1-.5-.3-.9-.6-1.3zM9.4 29H4.3c-1.4-.4-2.3-1.3-2.8-2.5-.4-1.2-.3-2.8.6-3.7L5 19c.2.6.3 1.2.7 1.7-1.2 1.4-2.3 3-1.8 4.9.7 2.5 3.3 3 5.5 3.3v.1zM8 23.9c-.1-.1-.1-.3-.1-.5.1 0 .3 0 .4-.2.3-1.4-.4-2.8 0-4.1 0-.4.6-.8 0-1.1-.2.1-.4.2-.5.3-.7.4-1.6 0-2.4.3-.1 0-.1-.2 0-.3L17.9 2.2c.9-1 2.2-1.2 3.5-1 1 .2 1.9.8 2.5 1.7l6.8 9.1c0 .1-.1.1-.1.1-.5-.5-1.2-.9-2-.7-.5.1-.9.7-1 1.2 0 .4 0 .8.1 1.1l-.5.3c-.7-1.3-1.3-2.7-2-4.1l.1-.1c-.2-.2-.2-.7-.6-.8l-1.3-2.7c.1-.3-.2-.6-.3-.9H23L21.8 3c.1-.2-.1-.5-.2-.7-.5 0-1.1.2-1.4.6 0 .2.1.5.3.6l.9 2.6c-.2.3.1.6.2.9l.2.1 1.1 3-.1.1c.1.3.1.7.4.8l1.6 4.3-14.7 7.6c-.7.4-1.4.8-2.1 1zm8.7.6c-1.6.6-3.6.6-5.4.2l5.4-3h.1c-.2.9-.2 1.9-.1 2.8zm22.5 2.2c-.4.8-1.2 1.7-2 2-.6.2-1.2.3-1.9.3H10.9v-.2c2.3-.4 4.4-1.1 6.5-2 .3.6.7 1.3 1.4 1.7l.3-.1c2.2-1 4.4-2.9 5.6-5.1.6-.6 1.3-1 1.8-1.6 0-.2-.1-.4-.1-.6-.3 0-.5.2-.8.3-2.2.7-4-.9-6.3-.5-.7.1-1.3.2-1.9.3v-.1l8.2-4.6 2.1 4.2c-.1.3.2.6.3.9l.2.1 1.4 2.8c-.1.3.2.5.3.8l.1.1 1.1 2.2c-.1.2.1.5.2.7.6 0 1.1-.3 1.5-.7-.1-.2-.1-.6-.4-.7l-.8-2.2c.2-.3-.1-.6-.2-.9l-.3.2-1.1-3 .1-.1-.3-.8-.2-.1c-.6-1.5-1.2-3-1.7-4.6.2-.1.4-.3.6-.2.6.9 1.5 1.7 2.6 1.6.5-.1 1-.6 1.1-1.1.2-.7 0-1.4-.3-2l.1-.1 7 9.5c.6 1.1.7 2.5.2 3.6z"/></svg>