<svg width="162" height="64" viewBox="0 0 162 64" xmlns="http://www.w3.org/2000/svg"><title>Logo</title><g fill="#FFF" fill-rule="evenodd"><path d="M71.973 12.689V5.615c0-.903-.63-1.353-1.759-1.353h-1.893V.292h16.677v3.97h-2.793c-1.128 0-1.76.675-1.76 1.803v18.479c0 1.174.632 1.668 1.76 1.668h2.748v3.969H68.368v-3.97h1.846c1.128 0 1.76-.27 1.76-1.488v-8.068h-9.917v7.98c0 1.083.63 1.577 1.756 1.577h1.848v3.969H49.075v-3.97h2.75c1.126 0 1.758-.674 1.758-1.802V5.479c0-.767-.632-1.217-1.758-1.217H49.03V.292h16.678v3.97h-1.895c-1.126 0-1.756.405-1.756 1.937v6.49h9.916zM94.686 19.631c0 5.318.944 7.617 3.65 7.617 2.704 0 3.653-2.299 3.653-7.617 0-5.319-.949-7.618-3.653-7.618-2.706 0-3.65 2.3-3.65 7.618m15.278 0c0 7.212-4.91 11.224-11.627 11.224-6.716 0-11.632-4.012-11.632-11.224 0-7.212 4.916-11.224 11.632-11.224 6.718 0 11.627 4.012 11.627 11.224M121.323 19.813c0 4.414 1.036 7.164 3.56 7.164 2.523 0 3.56-2.75 3.56-7.164 0-4.42-1.037-7.216-3.56-7.216-2.524 0-3.56 2.797-3.56 7.216zm-.36-7.44h.09c1.306-2.748 3.65-3.966 6.536-3.966 6.805 0 8.832 5.724 8.832 11.223 0 5.5-2.027 11.226-8.832 11.226-2.706 0-5.23-1.04-6.175-3.022l-.09.092v6.265c0 1.263.313 1.938 1.622 1.938h1.847v3.604h-14.288v-3.604h1.711c1.31 0 1.624-.675 1.624-1.938V14.627c0-1.263-.315-1.938-1.624-1.938h-1.756V9.084h10.502v3.29zM153.505 17.063V15.89c0-2.298-1.22-3.876-3.38-3.876-2.211 0-3.428 1.578-3.428 3.876v1.174h6.808zm-6.898 3.604c0 3.154.723 6.31 4.509 6.31 1.577 0 4.146-1.216 4.552-3.876h5.226c-.72 5.41-5.992 7.754-10.861 7.754-7.706 0-11.404-4.282-11.404-11.225 0-6.985 4.959-11.223 11.404-11.223 7.348 0 11.448 5.23 11.448 12.26h-14.874zM8.611 63.56C3.609 63.56 0 60.06 0 55.194c0-4.783 3.696-8.39 8.611-8.39 2.147 0 4.073.753 5.356 1.547l-.73 1.508c-1.372-.797-3.231-1.393-4.781-1.393-4.096 0-6.531 2.898-6.531 6.727 0 3.83 2.59 6.706 6.686 6.706 1.549 0 3.409-.597 4.781-1.394l.575 1.505c-1.283.798-3.209 1.551-5.356 1.551M33.476 63.56c-4.383 0-8.013-3.5-8.013-8.367 0-4.87 3.784-8.39 8.168-8.39 4.382 0 8.013 3.52 8.013 8.39 0 4.867-3.786 8.367-8.168 8.367m.087-15.163c-3.607 0-6.175 2.967-6.175 6.796s2.568 6.794 6.175 6.794c3.587 0 6.154-2.965 6.154-6.794 0-3.83-2.567-6.795-6.154-6.795M55.226 63.294V47.07h1.771V61.7h7.726v1.593zM77.448 63.294V47.07h1.77V61.7h7.727v1.593zM99.67 63.294V47.07h9.496v1.591h-7.725v5.6h6.95v1.594h-6.95V61.7h7.725v1.593zM136.324 55.257v6.4c-1.639 1.216-3.52 1.903-5.932 1.903-4.495 0-8.678-3.298-8.678-8.367 0-5.092 4.295-8.39 8.478-8.39 2.68 0 4.362.773 6.065 1.97l-.929 1.393c-1.483-1.084-3.343-1.769-5.114-1.769-4.16 0-6.574 3.208-6.574 6.796 0 3.828 2.99 6.793 6.773 6.793 1.595 0 2.857-.329 4.141-1.106v-3.96h-4.295v-1.663h6.065zM150.229 63.294V47.07h9.498v1.591h-7.726v5.6h6.95v1.594h-6.95V61.7h7.726v1.593zM40.026 22.613L26.965 5.068 24.47 1.772C23.732.894 22.79.41 21.77.127 19.969-.26 18.19.24 16.915 1.57L1.237 22.054c-1.093 1.351-1.304 3.5-.603 5.1.734 1.706 2.488 2.921 4.318 3.02l25.56.02 5.63-.014c.812-.092 1.557-.299 2.23-.708.565-.328 1.145-.926 1.509-1.469 1.03-1.48 1.124-3.86.145-5.39zm-10.567-9.745l-.843.421c-.052-.267-.123-.586.005-.84.162-.18.417-.199.639-.144 1.126.306 1.753 1.522 2.023 2.536-.014.284.049.595-.156.796-.341.262-.786.121-1.125-.062-.33-.194-.603-.538-.78-.847.279-.209.65-.366.92-.61-.114-.456-.378-.862-.683-1.25zM9.39 29.005l-5.104-.03c-1.398-.357-2.348-1.294-2.787-2.506-.405-1.217-.266-2.766.622-3.718L5 18.986c.177.595.343 1.193.677 1.718-1.156 1.402-2.348 2.978-1.788 4.91.692 2.46 3.304 3.034 5.502 3.263v.128zm-1.41-5.117c-.103-.105-.124-.307-.082-.456.14.02.33-.03.417-.159.318-1.4-.362-2.756.03-4.136-.008-.37.6-.834-.022-1.118-.194.075-.355.244-.535.347-.693.413-1.595.044-2.351.293-.105-.033-.072-.192.002-.256L17.91 2.19c.887-.978 2.186-1.18 3.47-.97.955.23 1.856.78 2.465 1.68l6.823 9.055c.019.074-.088.072-.13.103-.528-.544-1.183-.93-1.96-.725-.545.136-.9.725-.977 1.24-.035.412.037.784.117 1.147l-.531.324c-.661-1.333-1.31-2.71-1.968-4.065l.107-.127c-.19-.245-.187-.734-.558-.75l-1.276-2.708c.14-.298-.188-.598-.282-.895l-.2-.109-1.183-2.433c.104-.234-.093-.48-.22-.692-.53-.008-1.054.236-1.438.626.05.244.09.521.302.641l.927 2.558c-.173.287.07.64.196.925l.179.056 1.108 3.04-.087.074c.146.267.099.723.43.798l1.604 4.28-14.724 7.642c-.702.358-1.355.82-2.123.984zm8.714.6c-1.621.58-3.64.577-5.382.245l5.4-3.025.054.043c-.135.87-.194 1.86-.072 2.736zm22.514 2.233c-.355.828-1.171 1.673-2.013 2.03-.586.241-1.246.33-1.936.313l-4.21.023-20.171-.01c-.021-.023 0-.125 0-.17 2.269-.386 4.397-1.116 6.487-1.958.313.638.734 1.344 1.39 1.741l.31-.054c2.165-1.047 4.379-2.91 5.574-5.084.569-.63 1.334-.977 1.798-1.647.032-.242-.051-.425-.124-.615-.265.02-.512.242-.798.303-2.207.675-4.023-.87-6.32-.504-.66.071-1.32.223-1.936.338v-.053l8.246-4.629 2.087 4.226c-.141.316.208.563.269.86l.203.11 1.359 2.796c-.078.265.175.533.305.788l.126.054 1.057 2.178c-.096.223.114.458.219.66.574.04 1.105-.265 1.512-.677-.082-.237-.125-.554-.355-.664l-.823-2.194c.16-.256-.112-.578-.196-.855l-.181-.077-1.127-2.909.108-.107-.301-.82-.202-.077c-.573-1.525-1.18-3.04-1.711-4.586.194-.052.385-.337.565-.165.59.888 1.506 1.704 2.646 1.55.49-.132 1.015-.576 1.125-1.094.163-.705-.012-1.407-.315-1.995l.106-.072 7.022 9.473c.608 1.005.67 2.484.205 3.573z"/></g></svg>