<?xml version="1.0" encoding="utf-8"?>
<!-- Generator: Adobe Illustrator 21.1.0, SVG Export Plug-In . SVG Version: 6.00 Build 0)  -->
<svg version="1.1" id="Layer_1" xmlns="https://www.w3.org/2000/svg" xmlns:xlink="https://www.w3.org/1999/xlink" x="0px" y="0px"
	 viewBox="0 0 36 37" style="enable-background:new 0 0 36 37;" xml:space="preserve">
<style type="text/css">
	.st0{fill:#F46A1F;}
</style>
<path class="st0" d="M24.3,20.5c-1.4,3-3.5,4.7-7.3,4.7c-1-0.3-2.7-0.7-4.3-1.2c-0.3-0.1-0.6-0.4-0.7-0.6c-0.9-1.9-1.6-3.9-1.4-6.1
	c0.2-1.6,0.8-2.9,2-3.9c2.2-2,6.2-2.5,8.8-0.9C24.2,14,25.9,17.1,24.3,20.5 M25.5,13.9c-0.8-0.9-1.7-1.7-2.6-2.5
	c-1.7-1.5-3.8-2.3-6-2.4c-2.7-0.2-4.9,0.9-6.6,3c-1.5,1.7-2.5,3.4-2.3,5.7c0.1,1.1,0.1,2.1,0.3,3.2c0.2,1.5,1.6,2.4,2.3,3.6
	c0.1,0.2,0.4,0.4,0.6,0.5c1.5,0.7,3.1,1.4,4.6,2.1c1.5,0.6,3.1,0.4,4.7,0c1.7-0.5,3-1.6,4.2-2.8c1.5-1.4,2.1-3.2,2.2-5.1
	c0.1-1.2-0.4-2.4-0.7-3.6C26.1,15,25.9,14.3,25.5,13.9"/>
<path class="st0" d="M33.4,19.3c0,1.6-0.3,3.1-0.4,4.7c-0.1,1.3-0.1,2.7-0.5,4c-0.6,2.4-2.1,4-4.6,4.6c-3,0.8-5.9,0.8-8.9,0.7
	c-2.6-0.1-5.3-0.1-7.9-0.2C9.8,33,8.5,33,7.3,33c-2,0-3.2-1.1-4.1-2.8c-0.6-1.3-0.9-2.6-0.9-4.1c0-2.1,0.2-4.2-0.1-6.3
	c-0.5-4,0.1-7.9,0.3-11.8c0.1-2.1,1.2-3.6,3.2-4.5C7.4,2.7,9,2.6,10.7,2.6C15.9,2.5,21,2.4,26.2,2.4c1.5,0,3,0.3,4.2,1.2
	c0.6,0.4,1,1.3,1.6,1.7c1.1,0.9,1.3,2,1.4,3.3c0,1.2,0,2.5,0,3.7h0C33.5,14.6,33.5,17,33.4,19.3 M35.6,10.9c-0.2-2-1-3.9-1.5-5.8
	c-0.4-1.3-1.1-2.3-2.3-2.9c-1-0.5-1.9-1.1-2.9-1.5c-2.1-1-4.5-0.4-6.7-0.6c-0.5,0-0.9,0.1-1.4,0.1C16.4-0.1,12-0.1,7.6,0.4
	C5.1,0.6,3.2,1.8,1.9,4C1.5,4.8,1.1,5.6,0.7,6.4C0.5,6.9,0.3,7.3,0.2,7.7c-0.3,1.2-0.1,2.3,0,3.5c0.1,2.4,0.1,4.7,0.1,7.1
	c0,1.2,0,2.4-0.1,3.5c-0.5,3.7,0,7.1,2,10.4c1.2,1.9,2.9,2.8,4.9,3c3.4,0.3,6.8,0.5,10.2,0.7l0-0.2c0.9,0,1.9,0,2.8,0
	c2.3-0.1,4.6-0.1,6.9-0.4c2.8-0.4,5-2,7-4.1c0.4-0.4,0.7-1,0.8-1.5c0.4-2.5,0.7-5,0.9-7.6C36.1,18.4,36.1,14.6,35.6,10.9"/>
<path class="st0" d="M27.4,7.1c-0.5,0.3-1,0.6-1.3,1.1c-0.2,0.3-0.1,1,0.1,1.3c0.4,0.5,1,0.9,1.5,1.3c0.1,0.1,0.5,0.1,0.6,0
	c0.7-0.3,0.9-0.9,1-1.7c-0.2-0.5-0.4-1-0.6-1.4C28.5,7.2,28,6.8,27.4,7.1"/>
</svg>
