<svg xmlns="https://www.w3.org/2000/svg" viewBox="0 0 38 37"><path fill="#F46A1F" d="M36.6 25.9c-.1 0-.2-.1-.4-.2s-.5-.2-.7-.3l-.2-.1c-.8-.3-1.6-.5-2.2-1.1-.7-.6-1.3-1.3-1.9-2-.4-.4-.7-.8-.8-1.2l-.1-.2c-.3-.6-.6-1.2-.5-1.9 0-.3.1-.4.3-.5.7-.2 1.2-.4 1.7-.6.4-.2.7-.3 1-.6.4-.3.6-.7.6-1.1 0-.4-.2-.8-.5-1.2-.4-.4-.9-.6-1.3-.6h-.5c-.4 0-.7.1-1.1.2h-.3c-.2 0-.3 0-.4-.5 0-.2-.1-.4-.1-.5v-1.3c0-1.1-.1-2.2-.1-3.4 0-1.8-.6-3.3-1.2-4.6-.2-.4-.4-.7-.7-1-.2-.2-.3-.4-.5-.6C26 1.5 25 .8 23.7.5l-.5-.1C21.9.1 20.5-.2 19-.2h-1.5c-1.6 0-2.2.1-3.7.6-1.1.4-2.5 1-3.4 2.3-.8 1.5-1.4 2.8-2 4.5-.5 1.6-.4 3.1-.3 4.5 0 .6.1 1.1.1 1.6 0 .4.1.7.1 1.1v.5c-.1 0-.2 0-.5-.1-.2-.1-.5-.2-.7-.3-.3-.1-.5-.2-.8-.3-.3-.1-.5-.2-.8-.2-.6 0-1.3.3-1.7.7-.4.5-.7 1-.6 1.6 0 .2.1.7.4 1.1.4.5 1.1 1.2 2.1 1.3.7.3 1.3.6 1.7 1 .3.3.4.6.4 1-.1.8-.4 1.5-.8 2-.9 1.1-1.9 2.1-3 2.9-.5.4-1 .7-1.6.8-.5.1-1 .4-1.4.7-.6.4-.8 1-.4 1.8.4.7 1 1.2 1.8 1.3.5.1 1.1.1 1.6.2h.2c.4 0 .6.2.7.5.1.2.2.5.2.7.3 1.1.9 1.7 1.8 1.7.2 0 .4 0 .6-.1.7-.1 1.6-.2 2.5-.2h.5c.2 0 .6 0 .9.2.2.1.5.4.7.6.2.2.5.4.8.6.7.4 1.4.9 2.1 1.2 1.3.5 2.5.7 3.9.7h.5c1.9-.1 3.4-.7 4.6-1.9.1-.1.3-.2.4-.3.1-.1.3-.2.4-.3h.1c.5-.3 1.1-.7 1.6-.9.3-.1.6-.2.8-.2h.1c.8.1 1.6.2 2.3.4l.3.1c.2 0 .3.1.5.1 1 0 1.7-.6 1.9-1.6 0-.2.1-.3.1-.5 0-.1.1-.3.1-.4.1-.4.3-.6.6-.7.6-.1 1.3-.2 1.9-.3h.4c.3 0 .5-.1.8-.1.8-.2 1.4-1 1.4-1.9s-.4-1.6-1.1-1.9m-5.7 4.9c-.1.7-.2.7-.2.7-.1 0-.3 0-.6-.1s-.6-.1-.9-.1h-.6-.2c-.4-.2-.7-.3-1.1-.3-.8 0-1.4.4-2.2.9-.4.3-.7.5-1.1.8-.5.4-1.1.8-1.6 1.2-.7.6-1.7.9-2.9.9h-.6c-1.6 0-3.1-.4-4.3-1.1-.8-.5-1.5-1-2.1-1.7-.4-.6-1-.6-1.3-.6H10h-.5c-.8 0-1.5.1-2.2.3-.1 0-.2.1-.3.1-.1 0-.2 0-.3-.5-.3-1.7-1.2-2.5-3-2.5-.4 0-.7 0-1-.1-.2 0-.3-.1-.4-.2.2-.1.4-.2.5-.2 1-.2 1.8-.7 2.7-1.5l.4-.3c.9-.8 1.9-1.7 2.7-2.8.6-.8 1-1.7 1.1-2.5.1-.7-.1-1.3-.5-1.8-.7-.9-1.6-1.8-3-2-.2 0-.5-.2-.9-.4-.3-.3-.5-.6-.3-.9.1-.2.4-.3.7-.3h.2c.1.1.3.2.5.3.2.1.5.2.7.3h.1c.3.1.7.3 1.1.3.3 0 .5-.1.8-.2.2-.1.9-.5.9-1.5-.1-.7-.1-1.4-.1-2.1 0-.5-.1-1-.1-1.5-.1-1-.1-2.1.2-3.1.4-1.4.9-2.4 1.5-3.3.1-.1.1-.2.2-.3.3-.5.6-.9 1.1-1.2.8-.6 1.8-.9 2.8-1.3h.1c.7-.2 1.4-.3 2.3-.3.6 0 1.3.1 1.9.1h.4c1.2.1 2.5.4 3.5.7.6.2 1.2.6 1.5 1.1.1.2.3.3.4.5.2.2.3.4.5.7 1 1.7 1.5 3.5 1.4 5.7v3.7c0 .3 0 .5.1.8.4 1.2.9 1.7 2 1.7h1.4c-.1 0-.2.1-.3.1-.2.1-.4.1-.6.2h-.1c-.3.1-.6.2-.9.4-.7.5-1.1 1.2-1 2 .1 1.6.7 2.9 1.7 4 .7.8 1.6 1.6 2.3 2.3.7.7 1.6 1 2.4 1.3l.2.1c.2.1.3.1.5.2s.5.2.7.3c.1 0 .2.1.2.2s-.1.2-.1.2c-.1.1-.4.1-.6.2-.2 0-.5 0-.8.1h-.6c-1.9-.2-2.9.7-3.2 2.3"/></svg>