<?xml version="1.0" encoding="utf-8"?>
<!-- Generator: Adobe Illustrator 21.1.0, SVG Export Plug-In . SVG Version: 6.00 Build 0)  -->
<svg version="1.1" id="Layer_1" xmlns="http://www.w3.org/2000/svg" xmlns:xlink="http://www.w3.org/1999/xlink" x="0px" y="0px"
	 viewBox="0 0 38 37" style="enable-background:new 0 0 38 37;" xml:space="preserve">
<style type="text/css">
	.st0{fill:#FFFFFF;}
</style>
<path class="st0" d="M36.6,25.9c-0.1,0-0.2-0.1-0.4-0.2s-0.5-0.2-0.7-0.3l-0.2-0.1c-0.8-0.3-1.6-0.5-2.2-1.1c-0.7-0.6-1.3-1.3-1.9-2
	c-0.4-0.4-0.7-0.8-0.8-1.2l-0.1-0.2c-0.3-0.6-0.6-1.2-0.5-1.9c0-0.3,0.1-0.4,0.3-0.5c0.7-0.2,1.2-0.4,1.7-0.6c0.4-0.2,0.7-0.3,1-0.6
	c0.4-0.3,0.6-0.7,0.6-1.1s-0.2-0.8-0.5-1.2c-0.4-0.4-0.9-0.6-1.3-0.6h-0.5c-0.4,0-0.7,0.1-1.1,0.2h-0.3c-0.2,0-0.3,0-0.4-0.5
	c0-0.2-0.1-0.4-0.1-0.5v-1.3c0-1.1-0.1-2.2-0.1-3.4c0-1.8-0.6-3.3-1.2-4.6c-0.2-0.4-0.4-0.7-0.7-1C27,3,26.9,2.8,26.7,2.6
	c-0.7-1.1-1.7-1.8-3-2.1l-0.5-0.1c-1.3-0.3-2.7-0.6-4.2-0.6h-1.5c-1.6,0-2.2,0.1-3.7,0.6c-1.1,0.4-2.5,1-3.4,2.3
	C9.6,4.2,9,5.5,8.4,7.2C7.9,8.8,8,10.3,8.1,11.7c0,0.6,0.1,1.1,0.1,1.6c0,0.4,0.1,0.7,0.1,1.1v0.5c-0.1,0-0.2,0-0.5-0.1
	c-0.2-0.1-0.5-0.2-0.7-0.3c-0.3-0.1-0.5-0.2-0.8-0.3S5.8,14,5.5,14c-0.6,0-1.3,0.3-1.7,0.7c-0.4,0.5-0.7,1-0.6,1.6
	c0,0.2,0.1,0.7,0.4,1.1c0.4,0.5,1.1,1.2,2.1,1.3c0.7,0.3,1.3,0.6,1.7,1c0.3,0.3,0.4,0.6,0.4,1c-0.1,0.8-0.4,1.5-0.8,2
	c-0.9,1.1-1.9,2.1-3,2.9c-0.5,0.4-1,0.7-1.6,0.8c-0.5,0.1-1,0.4-1.4,0.7c-0.6,0.4-0.8,1-0.4,1.8c0.4,0.7,1,1.2,1.8,1.3
	c0.5,0.1,1.1,0.1,1.6,0.2h0.2c0.4,0,0.6,0.2,0.7,0.5c0.1,0.2,0.2,0.5,0.2,0.7c0.3,1.1,0.9,1.7,1.8,1.7c0.2,0,0.4,0,0.6-0.1
	C8.2,33.1,9.1,33,10,33h0.5c0.2,0,0.6,0,0.9,0.2c0.2,0.1,0.5,0.4,0.7,0.6c0.2,0.2,0.5,0.4,0.8,0.6c0.7,0.4,1.4,0.9,2.1,1.2
	c1.3,0.5,2.5,0.7,3.9,0.7h0.5c1.9-0.1,3.4-0.7,4.6-1.9c0.1-0.1,0.3-0.2,0.4-0.3s0.3-0.2,0.4-0.3h0.1c0.5-0.3,1.1-0.7,1.6-0.9
	c0.3-0.1,0.6-0.2,0.8-0.2h0.1c0.8,0.1,1.6,0.2,2.3,0.4l0.3,0.1c0.2,0,0.3,0.1,0.5,0.1c1,0,1.7-0.6,1.9-1.6c0-0.2,0.1-0.3,0.1-0.5
	c0-0.1,0.1-0.3,0.1-0.4c0.1-0.4,0.3-0.6,0.6-0.7c0.6-0.1,1.3-0.2,1.9-0.3h0.4c0.3,0,0.5-0.1,0.8-0.1c0.8-0.2,1.4-1,1.4-1.9
	S37.3,26.2,36.6,25.9 M30.9,30.8c-0.1,0.7-0.2,0.7-0.2,0.7c-0.1,0-0.3,0-0.6-0.1s-0.6-0.1-0.9-0.1h-0.6h-0.2
	C28,31.1,27.7,31,27.3,31c-0.8,0-1.4,0.4-2.2,0.9c-0.4,0.3-0.7,0.5-1.1,0.8c-0.5,0.4-1.1,0.8-1.6,1.2c-0.7,0.6-1.7,0.9-2.9,0.9h-0.6
	c-1.6,0-3.1-0.4-4.3-1.1c-0.8-0.5-1.5-1-2.1-1.7c-0.4-0.6-1-0.6-1.3-0.6H10H9.5c-0.8,0-1.5,0.1-2.2,0.3c-0.1,0-0.2,0.1-0.3,0.1
	c-0.1,0-0.2,0-0.3-0.5c-0.3-1.7-1.2-2.5-3-2.5c-0.4,0-0.7,0-1-0.1c-0.2,0-0.3-0.1-0.4-0.2c0.2-0.1,0.4-0.2,0.5-0.2
	c1-0.2,1.8-0.7,2.7-1.5l0.4-0.3c0.9-0.8,1.9-1.7,2.7-2.8c0.6-0.8,1-1.7,1.1-2.5c0.1-0.7-0.1-1.3-0.5-1.8c-0.7-0.9-1.6-1.8-3-2
	c-0.2,0-0.5-0.2-0.9-0.4C5,16.7,4.8,16.4,5,16.1c0.1-0.2,0.4-0.3,0.7-0.3h0.2C6,15.9,6.2,16,6.4,16.1s0.5,0.2,0.7,0.3h0.1
	c0.3,0.1,0.7,0.3,1.1,0.3c0.3,0,0.5-0.1,0.8-0.2C9.3,16.4,10,16,10,15c-0.1-0.7-0.1-1.4-0.1-2.1c0-0.5-0.1-1-0.1-1.5
	c-0.1-1-0.1-2.1,0.2-3.1c0.4-1.4,0.9-2.4,1.5-3.3c0.1-0.1,0.1-0.2,0.2-0.3c0.3-0.5,0.6-0.9,1.1-1.2c0.8-0.6,1.8-0.9,2.8-1.3h0.1
	C16.4,2,17.1,1.9,18,1.9c0.6,0,1.3,0.1,1.9,0.1h0.4c1.2,0.1,2.5,0.4,3.5,0.7c0.6,0.2,1.2,0.6,1.5,1.1c0.1,0.2,0.3,0.3,0.4,0.5
	C25.9,4.5,26,4.7,26.2,5c1,1.7,1.5,3.5,1.4,5.7v3.7c0,0.3,0,0.5,0.1,0.8c0.4,1.2,0.9,1.7,2,1.7h1.4c-0.1,0-0.2,0.1-0.3,0.1
	c-0.2,0.1-0.4,0.1-0.6,0.2h-0.1c-0.3,0.1-0.6,0.2-0.9,0.4c-0.7,0.5-1.1,1.2-1,2c0.1,1.6,0.7,2.9,1.7,4c0.7,0.8,1.6,1.6,2.3,2.3
	c0.7,0.7,1.6,1,2.4,1.3l0.2,0.1c0.2,0.1,0.3,0.1,0.5,0.2s0.5,0.2,0.7,0.3c0.1,0,0.2,0.1,0.2,0.2s-0.1,0.2-0.1,0.2
	c-0.1,0.1-0.4,0.1-0.6,0.2c-0.2,0-0.5,0-0.8,0.1h-0.6C32.2,28.3,31.2,29.2,30.9,30.8"/>
</svg>
