<?xml version="1.0" encoding="utf-8"?>
<!-- Generator: Adobe Illustrator 21.1.0, SVG Export Plug-In . SVG Version: 6.00 Build 0)  -->
<svg version="1.1" id="Layer_1" xmlns="https://www.w3.org/2000/svg" xmlns:xlink="https://www.w3.org/1999/xlink" x="0px" y="0px"
	 viewBox="0 0 45 37" style="enable-background:new 0 0 45 37;" xml:space="preserve">
<style type="text/css">
	.st0{fill:#F46A1F;}
</style>
<path class="st0" d="M38.2,10.7c0.1,0.8,0.1,1.5-0.2,2.3c-0.2,0.5-0.3,1-0.4,1.5c0,0.2-0.1,0.4-0.1,0.6c-0.2,0.8-0.4,1.5-0.6,2.3
	c-0.1,0.2-0.1,0.4-0.1,0.6c-0.1,0.4-0.2,0.9-0.3,1.3c-0.1,0.2-0.1,0.4-0.2,0.6c-0.4,1.2-0.9,2.4-1.6,3.4c-0.2,0.3-0.3,0.5-0.4,0.8
	L34,24.7c-0.6,0.8-1,1.4-1.6,2c-0.6,0.7-1.3,1.3-1.9,1.9L30,29.1c-0.8,0.8-1.9,1.6-3.3,2.4c-0.1,0.1-0.2,0.1-0.3,0.2
	c-0.3,0.2-0.7,0.4-1,0.6c-0.8,0.5-1.8,0.8-2.7,1h-0.1c-0.1,0-0.3,0.1-0.4,0.1L21,33.7h-0.1c-0.6,0.2-1.2,0.4-1.8,0.5
	c-0.6,0.1-1.3,0.2-2.1,0.3h-3.2c-0.4,0-0.9-0.1-1.3-0.2c-0.2,0-0.4-0.1-0.5-0.1h-0.1c-0.1,0-0.3-0.1-0.5-0.1c-0.8,0-1.6-0.2-2.3-0.5
	c-0.1,0-0.2-0.1-0.3-0.1c-0.2-0.1-0.5-0.2-0.7-0.2c-0.8-0.2-1.5-0.4-2.3-0.6c0.5-0.1,1.1-0.2,1.8-0.4l0.3-0.1
	C8.5,32.1,9,32,9.6,31.8c1.7-0.6,3.3-1.5,4.6-2.3c0.2-0.2,0.4-0.3,0.6-0.5c0,0,0.1-0.1,0.2-0.1c0.4-0.4,0.5-0.8,0.4-1.3L15.2,27
	l-0.6,0.1c-0.2,0-0.5,0.1-0.7,0.1c-0.8,0-1.6-0.2-2.3-0.4h-0.1c-0.4-0.1-0.8-0.4-1.2-0.8c-0.7-0.6-1.4-1.4-2.1-2.4h0.2
	c0.3,0,0.6,0,1-0.1c0.5-0.1,1.1-0.3,1.5-1l0.3-0.6l-0.6-0.3c-0.1,0-0.1-0.1-0.2-0.1C9.8,21.1,9.6,21,9.3,21
	c-1.6-0.4-2.9-1.4-4.1-3.1c-0.4-0.6-0.8-1.2-1.1-1.9c0-0.3-0.1-0.5-0.1-0.7h0.1c0.4,0.1,0.8,0.2,1.3,0.3h1c0.2,0,0.7-0.1,1-0.6
	c0.1-0.2,0.4-0.8-0.4-1.4c-0.1-0.1-0.2-0.2-0.4-0.3c-0.2-0.1-0.3-0.3-0.5-0.4c-0.7-0.5-1.2-1.3-1.7-2.1C4,10.1,3.7,9.4,3.7,8.6
	c0-0.2-0.1-0.5-0.1-0.7c0-0.4-0.1-0.7-0.1-1.1c-0.1-0.9,0-1.6,0.4-2.5l0.6,0.6l0.3,0.3C5.4,5.8,6,6.4,6.7,7c1,0.8,2.1,1.6,3.4,2.4
	c0.8,0.6,1.7,0.9,2.8,1.3c0.4,0.1,0.7,0.3,1.1,0.5c0.4,0.2,0.8,0.3,1.2,0.5c0.9,0.4,1.9,0.6,3.2,0.7c0.7,0.1,1.3,0.1,2,0.2
	c0.4,0,0.8,0.1,1.2,0.1h0.2c0.1,0,0.1,0,0.2,0.1l0.8,0.2l0.1-0.8V12v-0.5c-0.2-1.1-0.1-2.2,0.4-3.3c0.1-0.2,0.1-0.4,0.2-0.6
	s0.1-0.4,0.2-0.5l0.9-1.8l0.2-0.4l0.1-0.1c0.2-0.2,0.4-0.3,0.5-0.5l1.1-1.1c0.2-0.3,0.6-0.4,1-0.5c0.1,0,0.2-0.1,0.2-0.1
	c1-0.4,1.9-0.6,2.7-0.6c0.4,0,0.8,0,1.2,0.1c0.2,0,0.4,0,0.5,0.1c0.4,0,0.9,0.1,1.2,0.3c0.2,0.1,0.3,0.1,0.5,0.2
	c0.3,0.1,0.6,0.3,0.9,0.4c0.3,0.2,0.6,0.5,0.8,0.7v0.1c0,0.1,0,0.2,0.1,0.3l0.2,0.6l0.6-0.1h0.1c0.1,0,0.3,0,0.5-0.1
	c1-0.3,2-0.7,2.9-1c0.2-0.1,0.4-0.1,0.6-0.2c-0.6,0.7-1.3,1.3-1.9,1.8c-0.1,0.1-0.3,0.2-0.4,0.5c-0.1,0.2-0.3,0.7-0.1,1
	s0.6,0.5,0.9,0.5h0.1C39.7,7.1,40.4,7,41,6.9c-0.5,0.7-1,1.3-1.7,1.7C38.2,9.3,38.2,10,38.2,10.7 M43.9,4.6
	c-0.3-0.3-0.7-0.4-0.8-0.4h-0.3c-0.3,0.1-0.7,0.2-1,0.3c0.1-0.1,0.1-0.2,0.2-0.3l0.9-1.5L43,2.4c0.2-0.3,0.3-1-0.2-1.3
	c-0.1,0-0.4-0.1-0.7-0.1h-0.3c-0.4,0.1-0.7,0.2-1.1,0.3c0,0-0.2,0.1-0.3,0.1l-0.8,0.3c-0.8,0.3-1.7,0.6-2.5,0.9
	c-0.3-0.4-0.6-0.7-1-0.9c-0.9-0.6-2-1.2-3.3-1.4H32c-0.4-0.1-0.8-0.2-1.2-0.2h-0.9c-0.3,0-0.7,0.1-1,0.1h-0.3c-1.1,0.2-2,0.5-2.7,1
	c-1,0.7-1.9,1.5-2.6,2.6C22.5,5,22,6.1,21.6,7.3c-0.3,1.1-0.7,2.3-0.7,3.5h-1c-0.6-0.1-1.3-0.1-2-0.3c-0.1,0-0.3-0.1-0.3-0.1
	C17,10.3,16.5,10.2,16,10c-0.8-0.3-1.5-0.6-2.2-1c-0.3-0.1-0.6-0.3-1-0.4c-0.1,0-0.2-0.1-0.3-0.1s-0.2-0.1-0.3-0.1
	c-0.7-0.4-1.3-0.8-2-1.2C9.1,6.4,7.9,5.6,6.9,4.7C6.2,4.1,5.6,3.4,5,2.6C4.5,2.1,4.2,1.8,3.8,1.8C3.3,1.8,3,2,2.6,2.7
	C2.4,2.9,2.2,3.1,2.2,3.4L2.1,3.6C2,4.1,1.8,4.6,1.7,5.2c-0.1,0.7-0.1,1.6,0,2.6C1.8,9,2,10.5,2.9,11.9c0.2,0.4,0.5,0.8,0.8,1.2
	c-0.3,0-0.5-0.1-0.6-0.1c-0.3,0-0.5,0.1-0.7,0.3s-0.3,0.5-0.3,1c0,0.7,0.1,1.4,0.4,2.1c0.1,0.1,0.1,0.3,0.2,0.4L3.3,18
	c0.6,1,1.3,2.1,2.4,2.9C5.8,21,5.9,21.1,6,21.1c0.1,0.1,0.3,0.2,0.4,0.3c-0.4,0-0.7,0.2-0.9,0.5c-0.2,0.3-0.2,0.7-0.1,1.1
	c0,0.1,0.1,0.3,0.2,0.4c0.2,0.2,0.4,0.5,0.6,0.8l0.1,0.1C6.8,25,7.4,25.7,8,26.4c1,1.1,2.2,1.8,3.6,2.1c-0.8,0.5-1.6,0.8-2.3,1
	c-0.7,0.3-1.4,0.4-2.2,0.6c-0.2,0-0.6,0.1-1,0.2c-0.1,0-0.2,0.1-0.3,0.1c-0.3,0.1-0.7,0.2-1,0.2c-0.6,0-1.2,0.1-1.8,0.1H2.2
	c-0.5,0-0.9,0.3-1.1,0.7l-0.2,0.5l0.4,0.3l0.1,0.1c0.1,0.1,0.2,0.2,0.4,0.3c0.5,0.3,1.3,0.7,2,1C4.3,33.8,4.6,34,5,34.1
	c0.3,0.1,0.5,0.1,0.8,0.2c0.2,0,0.5,0.1,0.7,0.2c0.5,0.1,0.9,0.3,1.3,0.4h0.1C8.3,35,8.7,35.1,9,35.3l1.2,0.3c0.2,0,0.3,0,0.5,0.1
	H11c0.9,0.2,2.1,0.4,3.3,0.4h3.1c0.9,0,1.8-0.3,2.6-0.5c0.3-0.1,0.5-0.2,0.8-0.2c0.4-0.1,0.9-0.2,1.3-0.4h0.1
	c0.2-0.1,0.5-0.2,0.7-0.2c0.2-0.1,0.4-0.1,0.6-0.2c0.7-0.2,1.5-0.4,2.2-0.8c0.6-0.4,1.2-0.7,1.8-1c2.1-1,3.8-2.5,5-3.7
	c1.2-1.2,2.2-2.5,3-3.8c0.3-0.5,0.6-1,0.8-1.4c0.1-0.3,0.3-0.5,0.4-0.8c0.3-0.6,0.7-1.2,0.9-1.9c0.1-0.2,0.2-0.5,0.3-0.7
	s0.2-0.5,0.2-0.7l0.1-0.2c0.2-0.5,0.4-1.1,0.5-1.7c0.1-0.4,0.2-0.9,0.3-1.3c0.1-0.5,0.2-1,0.3-1.4c0-0.2,0.1-0.3,0.1-0.5v-0.1
	c0.3-1.3,0.7-2.6,0.6-4c0-0.4,0.1-0.7,0.5-0.9c0.9-0.7,1.6-1.5,2.2-2.4c0.1-0.1,0.2-0.2,0.3-0.4c0.3-0.4,0.5-0.8,0.7-1.2
	c0-0.1,0.1-0.2,0.1-0.3C44.2,5.4,44.2,4.9,43.9,4.6"/>
</svg>
