<?xml version="1.0" encoding="utf-8"?>
<!-- Generator: Adobe Illustrator 21.1.0, SVG Export Plug-In . SVG Version: 6.00 Build 0)  -->
<svg version="1.1" id="Layer_1" xmlns="https://www.w3.org/2000/svg" xmlns:xlink="https://www.w3.org/1999/xlink" x="0px" y="0px"
	 viewBox="0 0 31.4 23.1" style="enable-background:new 0 0 31.4 23.1;" xml:space="preserve">
<style type="text/css">
	.st0{fill:#F46A1F;}
</style>
<path class="st0" d="M27.3,0.7C20-0.1,12.7-0.3,5.4,0.6C2.8,0.8,1,1.8,0,4.1v13.7c0,0.9,0.3,1.8,0.9,2.6c0.8,1,1.8,1.8,3.3,2
	c7.3,0.8,14.5,0.9,21.9,0.1c2.6-0.3,4.3-1.2,5.4-3.5V5.6c0-1.4-0.5-2.9-1.6-3.8C29.2,1.2,28.3,0.8,27.3,0.7 M30.1,17.5
	c-0.1,2.2-1.2,3.3-3.3,3.7c-7.4,0.9-14.9,0.9-22.3,0c-1.8-0.3-3.2-1.8-3.2-3.6c-0.1-4-0.8,1.6-0.4-11.1C1.4,2.2,1.4,3.3,4.7,2
	c7.4-1,14.8-1,22.2,0c2,0.3,3.1,1.4,3.2,3.5c0.1,2,0,4.1,0,6.2L30.1,17.5"/>
<path class="st0" d="M21.4,10.5c-2.8-2.2-5.4-3.4-8-5.1c-0.3-0.2-1.6,0.3-1.6,0.8c-0.1,3.5-0.1,7,0,10.6c0,1.4,0.4,1.6,1.6,0.9
	c2.7-1.7,5.6-4,8.3-5.7C22.7,11.2,22.3,11.3,21.4,10.5 M13.2,16.2V6.9c2.4,1.5,4.7,2.9,7.2,4.6C18,13.2,15.7,14.6,13.2,16.2"/>
</svg>
